<?xml version="1.0" encoding="UTF-8" standalone="no"?>
<!-- Created with Inkscape (http://www.inkscape.org/) -->

<svg
   xmlns:dc="http://purl.org/dc/elements/1.1/"
   xmlns:cc="http://creativecommons.org/ns#"
   xmlns:rdf="http://www.w3.org/1999/02/22-rdf-syntax-ns#"
   xmlns:svg="http://www.w3.org/2000/svg"
   xmlns="http://www.w3.org/2000/svg"
   xmlns:sodipodi="http://sodipodi.sourceforge.net/DTD/sodipodi-0.dtd"
   xmlns:inkscape="http://www.inkscape.org/namespaces/inkscape"
   width="210mm"
   height="297mm"
   viewBox="0 0 210 297"
   version="1.1"
   id="svg8"
   sodipodi:docname="sb_icon - Copy.svg"
   inkscape:version="0.92.4 (5da689c313, 2019-01-14)">
  <defs
     id="defs2">
    <inkscape:perspective
       sodipodi:type="inkscape:persp3d"
       inkscape:vp_x="0 : 148.5 : 1"
       inkscape:vp_y="0 : 1000 : 0"
       inkscape:vp_z="210 : 148.5 : 1"
       inkscape:persp3d-origin="105 : 99 : 1"
       id="perspective3749" />
  </defs>
  <sodipodi:namedview
     id="base"
     pagecolor="#ffffff"
     bordercolor="#666666"
     borderopacity="1.0"
     inkscape:pageopacity="0.0"
     inkscape:pageshadow="2"
     inkscape:zoom="0.98994949"
     inkscape:cx="614.44481"
     inkscape:cy="607.83195"
     inkscape:document-units="mm"
     inkscape:current-layer="layer1"
     showgrid="false"
     inkscape:window-width="1920"
     inkscape:window-height="1017"
     inkscape:window-x="-8"
     inkscape:window-y="-8"
     inkscape:window-maximized="1" />
  <metadata
     id="metadata5">
    <rdf:RDF>
      <cc:Work
         rdf:about="">
        <dc:format>image/svg+xml</dc:format>
        <dc:type
           rdf:resource="http://purl.org/dc/dcmitype/StillImage" />
        <dc:title />
      </cc:Work>
    </rdf:RDF>
  </metadata>
  <g
     inkscape:label="Layer 1"
     inkscape:groupmode="layer"
     id="layer1">
    <path
       sodipodi:type="star"
       id="path3739"
       sodipodi:sides="4"
       sodipodi:cx="84.676178"
       sodipodi:cy="187.79321"
       sodipodi:r1="47.02121"
       sodipodi:r2="33.249016"
       sodipodi:arg1="0.63707033"
       sodipodi:arg2="1.4224685"
       inkscape:flatsided="true"
       inkscape:rounded="0.17"
       inkscape:randomized="0"
       d="m 122.4738,215.76345 c -6.7245,9.08716 -56.680696,16.55188 -65.76786,9.82738 -9.087164,-6.7245 -16.551882,-56.68069 -9.827381,-65.76785 6.724502,-9.08717 56.680691,-16.55189 65.767861,-9.82739 9.08716,6.72451 16.55188,56.6807 9.82738,65.76786 z"
       style="fill:#008080;stroke-width:0.26458332"
       transform="matrix(1.0935847,0,0,1.6644516,45.73872,-143.70663)" />
    <path
       sodipodi:type="star"
       style="fill:#008000;stroke-width:0.26458332"
       id="path3775"
       sodipodi:sides="4"
       sodipodi:cx="9.8273811"
       sodipodi:cy="93.648811"
       sodipodi:r1="52.379372"
       sodipodi:r2="37.037807"
       sodipodi:arg1="1.2170932"
       sodipodi:arg2="2.0024913"
       inkscape:flatsided="true"
       inkscape:rounded="0.17"
       inkscape:randomized="0"
       d="M 27.970237,142.78572 C 16.156924,147.14755 -34.947685,123.60498 -39.309523,111.79167 -43.671361,99.978354 -20.128788,48.873746 -8.3154747,44.511907 3.4978383,40.150069 54.602447,63.692643 58.964285,75.505955 63.326124,87.319268 39.78355,138.42388 27.970237,142.78572 Z"
       transform="matrix(0.99700629,0,0,1.4629779,57.973743,26.812609)" />
    <ellipse
       style="fill:#aa8800;stroke-width:0.33876115"
       id="path3777"
       cx="96.572914"
       cy="56.796135"
       rx="39.876488"
       ry="41.388393"
       inkscape:export-xdpi="19.911108"
       inkscape:export-ydpi="19.911108" />
    <ellipse
       style="fill:#ececec;stroke-width:0.32404706"
       id="path3833"
       cx="79.375"
       cy="52.260418"
       rx="4.5357141"
       ry="4.7247024" />
    <ellipse
       style="fill:#ececec;stroke-width:0.30185613"
       id="path3835"
       cx="107.88764"
       cy="51.263718"
       rx="4.180666"
       ry="4.0031419" />
    <path
       style="fill:#000000;stroke-width:0.26458332"
       id="path3847"
       d="m 88.051186,87.381164 c 2.884787,-0.05555 5.779045,0.12284 8.658022,-0.09144 2.841508,-0.189317 5.491232,-1.339623 8.154372,-2.261283 1.21357,-0.359785 2.39961,-0.802222 3.59584,-1.214149 0,0 -0.58842,0.458081 -0.58842,0.458081 v 0 c -1.19514,0.41174 -2.38156,0.84985 -3.59314,1.212199 -2.66639,0.923349 -5.321194,2.067931 -8.167965,2.247223 -2.881892,0.20243 -5.77732,0.02992 -8.664387,0.08941 0,0 0.605678,-0.440049 0.605678,-0.440049 z"
       inkscape:connector-curvature="0" />
    <path
       style="fill:#000000;stroke-width:0.26458332"
       id="path3849"
       d="m 93.31567,64.054595 c -0.01389,2.504559 -0.07375,5.000276 0.212172,7.491211 0.289692,1.562942 0.830006,2.986884 1.661991,4.329687 0.355398,0.771348 0.774483,1.379516 1.548616,1.738887 0,0 -0.626848,0.413834 -0.626848,0.413834 v 0 c -0.773353,-0.384254 -1.212617,-0.990198 -1.569984,-1.775798 -0.837401,-1.35287 -1.38211,-2.786285 -1.674683,-4.360281 -0.286676,-2.493343 -0.226711,-4.990578 -0.218321,-7.497656 0,0 0.667057,-0.339884 0.667057,-0.339884 z"
       inkscape:connector-curvature="0" />
    <ellipse
       style="fill:#aa8800;stroke-width:0.26458332"
       id="path3857"
       cx="23.056549"
       cy="166.22023"
       rx="11.717261"
       ry="12.095239" />
    <path
       style="fill:#000000;stroke-width:0.26458332"
       id="path3871"
       d="m 117.45608,94.747431 c 2.25125,1.626232 4.52018,3.237275 6.73005,4.919773 1.21523,1.142936 2.44903,2.264806 3.76058,3.295686 0,0 -0.63471,0.39932 -0.63471,0.39932 v 0 c -1.30807,-1.03402 -2.54202,-2.15392 -3.75587,-3.29719 -2.20949,-1.683286 -4.47616,-3.29794 -6.73208,-4.91783 0,0 0.63203,-0.399759 0.63203,-0.399759 z"
       inkscape:connector-curvature="0" />
    <path
       style="fill:#000000;stroke-width:0.26458332"
       id="path3879"
       d="m 91.271084,100.27185 c -1.026348,1.4784 -2.118683,2.9016 -3.089323,4.41826 0,0 -0.681567,0.29982 -0.681567,0.29982 v 0 c 0.967645,-1.51915 2.062356,-2.94013 3.084097,-4.42212 0,0 0.686793,-0.29596 0.686793,-0.29596 z"
       inkscape:connector-curvature="0" />
    <path
       style="fill:#000000;stroke-width:0.26458332"
       id="path3889"
       d="m 175.57787,128.9529 c 1.29249,1.39057 2.7446,2.71089 3.65818,4.4032 0.50121,0.92844 0.77626,1.86595 1.11922,2.85939 1.44208,5.02098 1.95627,10.25132 2.42482,15.43658 0.18021,3.32808 0.66831,6.67587 0.29204,10.00437 -0.062,1.3734 -0.60857,2.62448 -0.94725,3.93541 -0.32848,1.27155 -0.13291,2.60839 -0.65563,3.82375 -0.0852,0.10678 -0.17031,0.21356 -0.25547,0.32035 0,0 -0.69248,0.29403 -0.69248,0.29403 v 0 c 0.0884,-0.10058 0.17685,-0.20118 0.26527,-0.30177 0.5522,-1.20261 0.33407,-2.54336 0.66133,-3.81252 0.33225,-1.31094 0.89043,-2.55594 0.95444,-3.9276 0.39046,-3.32525 -0.0938,-6.67219 -0.27021,-9.99851 -0.46454,-5.17893 -0.98045,-10.40245 -2.42601,-15.41567 -0.33877,-0.98082 -0.617,-1.92546 -1.11197,-2.84278 -0.91165,-1.68954 -2.36257,-3.00721 -3.65608,-4.392 0,0 0.6398,-0.38623 0.6398,-0.38623 z"
       inkscape:connector-curvature="0" />
    <path
       style="fill:#241c1c;stroke-width:0.26458332"
       id="path3901"
       d="m 101.62934,121.96002 c -0.0132,7.05997 -0.0115,14.11997 -0.0103,21.17995 -0.0781,8.0268 0.15091,16.05299 0.5438,24.06947 0.33787,6.13965 0.67956,12.27945 0.8795,18.4254 0.0784,2.49454 0.1054,4.99017 0.10956,7.48579 0,0 -0.66652,0.33971 -0.66652,0.33971 v 0 c -0.002,-2.49655 -0.0242,-4.99317 -0.0988,-7.48876 -0.19185,-6.1484 -0.5227,-12.29095 -0.86259,-18.43269 -0.39413,-8.01709 -0.62585,-16.04393 -0.54776,-24.07141 0.001,-7.05647 0.003,-14.11295 -0.0103,-21.16942 0,0 0.66344,-0.33804 0.66344,-0.33804 z"
       inkscape:connector-curvature="0" />
    <path
       style="fill:#241c1c;stroke-width:0.26458332"
       id="path3921"
       d="m 123.00804,150.35953 c -3.75637,12.94536 -7.7587,25.81843 -11.38858,38.80061 -3.11073,11.12544 -3.77626,13.96825 -6.58575,24.94536 -2.07894,8.26848 -3.91799,16.5934 -5.84433,24.89787 0,0 -0.628917,0.30252 -0.628917,0.30252 v 0 c 1.947417,-8.31139 3.804447,-16.64397 5.891587,-24.92216 2.82997,-11.03388 3.47018,-13.76349 6.59353,-24.95113 3.61857,-12.96146 7.59677,-25.81795 11.30175,-38.75443 0,0 0.66071,-0.31864 0.66071,-0.31864 z"
       inkscape:connector-curvature="0" />
    <path
       style="fill:#241c1c;stroke-width:0.26458332"
       id="path3923"
       d="m 115.10374,122.42598 c 2.01111,3.13406 3.87638,6.35569 5.23265,9.82909 0.61384,1.88804 0.88017,3.83113 1.538,5.70602 0.43485,1.20975 1.13931,2.28147 1.69574,3.43186 0,0 -0.65206,0.3701 -0.65206,0.3701 v 0 c -0.55667,-1.15338 -1.26223,-2.22779 -1.69868,-3.43988 -0.6579,-1.87509 -0.9275,-3.81563 -1.53198,-5.70648 -1.34816,-3.47165 -3.20689,-6.69249 -5.22758,-9.81523 0,0 0.64391,-0.37548 0.64391,-0.37548 z"
       inkscape:connector-curvature="0" />
    <path
       style="fill:#241c1c;stroke-width:0.26458332"
       id="path3925"
       d="m 99.451426,198.79234 c 0.344993,6.55213 0.416758,13.11131 0.787724,19.66272 0.0508,3.2559 0.50071,6.45728 1.04426,9.65745 0,0 -0.66054,0.35062 -0.66054,0.35062 v 0 c -0.53913,-3.20605 -0.984611,-6.41305 -1.030202,-9.67409 -0.363553,-6.54807 -0.431609,-13.10445 -0.803722,-19.65156 0,0 0.66248,-0.34514 0.66248,-0.34514 z"
       inkscape:connector-curvature="0" />
    <path
       style="fill:#241c1c;stroke-width:0.26458332"
       id="path3951"
       d="m 130.65993,139.32333 c -3.66833,17.61571 -6.97073,35.30571 -10.60575,52.93021 -3.10351,14.56044 -6.97124,28.97534 -11.78937,43.06481 -0.35707,0.87795 -0.71414,1.75591 -1.07122,2.63387 0,0 -0.6632,0.30612 -0.6632,0.30612 v 0 c 0.36069,-0.87812 0.72138,-1.75623 1.08206,-2.63434 4.8582,-14.0882 8.74077,-28.51261 11.8495,-43.08372 3.63348,-17.60921 6.9414,-35.28105 10.53339,-52.89682 0,0 0.66459,-0.32013 0.66459,-0.32013 z"
       inkscape:connector-curvature="0" />
    <path
       style="fill:#241c1c;stroke-width:0.26458332"
       id="path3955"
       d="m 94.193115,230.44331 c 3.342794,0.56295 6.599265,1.50734 9.923885,2.1658 2.06129,0.31421 3.95728,1.17774 5.94302,1.75236 0.26549,0.0519 0.53098,0.1038 0.79647,0.1557 0,0 -0.61416,0.42811 -0.61416,0.42811 v 0 c -0.26689,-0.0536 -0.53377,-0.10721 -0.80065,-0.16082 -1.98039,-0.58116 -3.87564,-1.43586 -5.93319,-1.75123 -3.3247,-0.66347 -6.583147,-1.60813 -9.928824,-2.16246 0,0 0.613449,-0.42746 0.613449,-0.42746 z"
       inkscape:connector-curvature="0" />
    <path
       style="fill:#241c1c;stroke-width:0.28750682"
       id="path3979"
       d="m 97.614719,222.09963 c 2.580291,0.50811 5.065731,1.31608 7.552281,2.08074 1.53977,0.77858 3.15799,1.25652 4.92652,1.45457 0.93918,0.30236 1.90618,0.50441 2.89323,0.65123 0,0 -10.90828,6.42619 -10.90828,6.42619 v 0 c -0.95962,-0.19446 -1.89792,-0.45028 -2.861851,-0.62811 -1.77996,-0.3294 -3.40141,-0.94706 -5.023504,-1.64094 -2.401441,-0.76165 -4.83724,-1.55888 -7.39096,-1.84425 0,0 10.812564,-6.49943 10.812564,-6.49943 z"
       inkscape:connector-curvature="0" />
    <path
       style="fill:#241c1c;stroke-width:0.30710432"
       id="path3981"
       d="m 95.844148,227.67578 c 0.07474,-2.60457 0.03561,-5.21002 0.03938,-7.815 0.0101,-2.28643 -0.01464,-4.57284 -0.02958,-6.85923 -0.0015,-0.2914 -0.0032,-0.58281 -0.0047,-0.87421 0,0 13.470352,-5.09446 13.470352,-5.09446 v 0 c -10e-4,0.29261 -0.003,0.58522 -0.005,0.87783 -0.0149,2.29385 -0.0396,4.58771 -0.0296,6.8816 0.004,2.59505 -0.0356,5.19059 0.0393,7.78521 0,0 -13.480385,5.09826 -13.480385,5.09826 z"
       inkscape:connector-curvature="0" />
    <text
       xml:space="preserve"
       style="font-style:normal;font-weight:normal;font-size:25.4px;line-height:1.25;font-family:sans-serif;letter-spacing:0px;word-spacing:0px;fill:#000000;fill-opacity:1;stroke:none;stroke-width:0.26458332;"
       x="65.21376"
       y="154.54535"
       id="text3985"><tspan
         sodipodi:role="line"
         id="tspan3983"
         x="65.21376"
         y="164.20085"
         style="stroke-width:0.26458332;font-size:25.4px;" /></text>
    <text
       xml:space="preserve"
       style="font-style:normal;font-weight:normal;font-size:35.27777863px;line-height:1.25;font-family:sans-serif;letter-spacing:0px;word-spacing:0px;fill:#000000;fill-opacity:1;stroke:none;stroke-width:0.26458332"
       x="64.411957"
       y="169.24516"
       id="text3989"><tspan
         sodipodi:role="line"
         id="tspan3987"
         x="64.411957"
         y="201.43015"
         style="font-size:35.27777863px;stroke-width:0.26458332" /></text>
    <flowRoot
       xml:space="preserve"
       id="flowRoot3991"
       style="font-style:normal;font-weight:normal;font-size:40px;line-height:1.25;font-family:sans-serif;letter-spacing:0px;word-spacing:0px;fill:#000000;fill-opacity:1;stroke:none"
       transform="scale(0.26458333)"><flowRegion
         id="flowRegion3993"><rect
           id="rect3995"
           width="1.0101526"
           height="51.51778"
           x="244.45691"
           y="531.58044" /></flowRegion><flowPara
         id="flowPara3997">ZZ</flowPara></flowRoot>    <text
       xml:space="preserve"
       style="font-style:normal;font-weight:normal;font-size:10.58333302px;line-height:1.25;font-family:'MV Boli';letter-spacing:0px;word-spacing:0px;fill:#000000;fill-opacity:1;stroke:none;stroke-width:0.26458332;-inkscape-font-specification:'MV Boli';font-stretch:normal;font-variant:normal;"
       x="66.55011"
       y="129.15474"
       id="text4001"><tspan
         sodipodi:role="line"
         id="tspan3999"
         x="66.55011"
         y="138.81024"
         style="stroke-width:0.26458332;-inkscape-font-specification:'MV Boli';font-family:'MV Boli';font-weight:normal;font-style:normal;font-stretch:normal;font-variant:normal;" /></text>
    <text
       xml:space="preserve"
       style="font-style:normal;font-weight:normal;font-size:10.58333302px;line-height:1.25;font-family:Forte;letter-spacing:0px;word-spacing:0px;fill:#000000;fill-opacity:1;stroke:none;stroke-width:0.26458332;-inkscape-font-specification:Forte;font-stretch:normal;font-variant:normal;"
       x="68.420998"
       y="127.28384"
       id="text4005"><tspan
         sodipodi:role="line"
         id="tspan4003"
         x="68.420998"
         y="136.93933"
         style="stroke-width:0.26458332;-inkscape-font-specification:Forte;font-family:Forte;font-weight:normal;font-style:normal;font-stretch:normal;font-variant:normal;" /></text>
    <path
       sodipodi:type="spiral"
       style="fill:none;fill-rule:evenodd;stroke:#000000;stroke-width:0.26458332"
       id="path4027"
       sodipodi:cx="109.10936"
       sodipodi:cy="53.243347"
       sodipodi:expansion="1"
       sodipodi:revolution="3"
       sodipodi:radius="1.5584358"
       sodipodi:argument="-15.952942"
       sodipodi:t0="0"
       d="m 109.10936,53.243347 c -0.0758,0.01895 -0.063,-0.09283 -0.0315,-0.125992 0.0852,-0.08986 0.22801,-0.02685 0.28348,0.063 0.0992,0.160717 1.8e-4,0.364015 -0.15749,0.440972 -0.23138,0.112938 -0.50225,-0.02621 -0.59846,-0.251984 -0.12822,-0.300919 0.0524,-0.641346 0.34648,-0.755952 0.37005,-0.14422 0.78085,0.0785 0.91344,0.440972 0.16059,0.438998 -0.10453,0.920588 -0.53546,1.070933 -0.50785,0.177175 -1.06048,-0.130513 -1.22843,-0.629961 -0.1939,-0.576632 0.15647,-1.200459 0.72446,-1.385912 0.64538,-0.210724 1.34051,0.182403 1.5434,0.818948 0.22761,0.714107 -0.20832,1.480618 -0.91344,1.700893 -0.78282,0.244547 -1.62076,-0.234237 -1.85839,-1.007937" />
    <path
       sodipodi:type="spiral"
       style="fill:none;fill-rule:evenodd;stroke:#000000;stroke-width:0.26458332"
       id="path4033"
       sodipodi:cx="82.398804"
       sodipodi:cy="57.74107"
       sodipodi:expansion="1"
       sodipodi:revolution="3"
       sodipodi:radius="1.6903609"
       sodipodi:argument="-20.884001"
       sodipodi:t0="0"
       d="m 82.398804,57.74107 c -0.0379,-0.07581 0.08348,-0.08849 0.125992,-0.063 0.115196,0.06909 0.08208,0.2351 0,0.31498 -0.146821,0.142886 -0.385386,0.08584 -0.503968,-0.063 -0.174024,-0.218418 -0.09042,-0.537971 0.125991,-0.692956 0.288449,-0.206572 0.691405,-0.09541 0.881945,0.188987 0.239774,0.357884 0.100608,0.845253 -0.251983,1.070933 -0.427036,0.273328 -0.999336,0.105932 -1.259921,-0.314979 -0.307091,-0.496029 -0.111335,-1.153564 0.377975,-1.448909 0.564927,-0.340988 1.30789,-0.116791 1.637897,0.44097 0.374974,0.633764 0.122283,1.462286 -0.503967,1.826886 -0.702557,0.409025 -1.616731,0.127802 -2.015873,-0.566963 -0.443124,-0.77132 -0.133342,-1.771213 0.629958,-2.204861"
       transform="matrix(2.4674543,0,0,3.6495984e-8,-120.44865,47.252294)" />
    <path
       style="fill:#241c1c;stroke-width:0.55621123"
       id="path4057"
       d="m 109.6552,37.330503 c 2.41031,1.397515 4.89654,2.662728 7.46561,3.781584 1.01635,0.454413 1.97207,1.010085 2.96379,1.508482 0,0 -10.17027,6.247666 -10.17027,6.247666 v 0 c -0.9611,-0.504193 -1.91127,-1.029401 -2.90719,-1.47191 -2.54651,-1.189415 -5.00848,-2.51824 -7.517738,-3.771696 0,0 10.165798,-6.294126 10.165798,-6.294126 z"
       inkscape:connector-curvature="0" />
    <path
       style="fill:#241c1c;stroke-width:0.74105984"
       id="path4067"
       d="m 89.275983,38.071578 c -2.295802,2.589039 -4.133021,5.351092 -5.805442,8.183937 -0.201319,0.33226 -0.402612,0.664524 -0.603908,0.996781 0,0 -16.541918,5.640561 -16.541918,5.640561 v 0 c 0.205957,-0.341168 0.411923,-0.682335 0.61788,-1.023495 1.861548,-2.785149 3.390967,-5.692809 5.678313,-8.320028 0,0 16.655075,-5.477756 16.655075,-5.477756 z"
       inkscape:connector-curvature="0" />
    <path
       style="fill:#241c1c;stroke-width:0.32358778"
       id="path4081"
       d="m 68.232056,27.231727 c 4.572335,-1.601768 9.252721,-2.637304 13.917288,-3.739184 6.759107,-1.755745 13.569949,-3.186643 20.422656,-4.268512 1.9731,-0.286858 3.94981,-0.540321 5.93109,-0.726994 0.97768,-0.09212 1.84614,-0.153682 2.80711,0.06364 0.13899,0.06843 0.30225,0.08755 0.41697,0.205276 0.10505,0.107763 0.31564,0.333082 0.20651,0.434565 -1.71644,1.596263 -3.54449,3.010828 -5.38651,4.382744 -0.0333,0.02478 -1.83685,0.111587 -1.93293,0.117506 -3.13001,-0.01634 -6.244575,0.181182 -9.361068,0.530422 -7.342711,0.798356 -14.524687,2.958782 -21.688792,4.986871 -4.210458,1.135779 -8.39818,2.380368 -12.649904,3.266907 -0.136886,0.0018 -0.29905,0.101629 -0.410656,0.0049 -1.91369,-1.659333 5.688735,-5.20105 7.691831,-6.1515 3.570239,-1.67992 7.06377,-3.596061 10.650407,-5.228541 3.105649,-1.413553 5.355676,-2.272445 8.514188,-3.538785 6.132273,-2.192604 12.275489,-4.395991 18.501554,-6.165176 -0.21252,0.578866 0.98511,-0.658311 1.16077,-0.230498 1.42004,3.458601 -6.80811,5.332158 -9.317515,5.950912 -5.441624,1.100124 -10.872921,2.271481 -16.284489,3.575517 -2.557598,0.688565 -5.145914,1.443145 -7.564214,2.699847 -0.09469,0.08164 -0.377122,0.329311 -0.284068,0.244921 1.714281,-1.554625 3.43394,-3.100391 5.147806,-4.655687 0.109619,-0.09947 0.202912,-0.228039 0.322528,-0.308533 0.604019,-0.406456 1.293943,-0.683734 1.923525,-1.100123 2.580744,-1.735529 5.225517,-3.260242 7.967189,-4.579356 1.697175,-0.779229 3.442879,-1.370366 5.189185,-1.955202 0.372731,-0.12483 0.743384,-0.258922 1.116994,-0.379765 0.167581,-0.0542 0.37399,-0.282032 0.506293,-0.145272 0.213426,0.22061 0.190026,0.642165 0.285033,0.963247 -0.261079,0.261917 -0.505169,0.551336 -0.783235,0.785753 -0.473957,0.399565 -0.981357,0.736579 -1.468221,1.112307 -1.540249,1.188661 -3.691009,2.878852 -5.13279,4.097791 -2.943093,2.488211 -4.018128,3.551786 -6.924567,6.249955 -5.210197,5.063008 -10.570177,9.885826 -15.905396,14.748159 -0.301902,0.27642 -0.605484,0.550132 -0.905711,0.829258 -0.208383,0.193734 -1.04437,1.217183 -0.725369,-0.331414 0.03722,-0.180678 0.257834,-0.199423 0.386752,-0.299136 -1.570863,1.093127 -3.141728,2.186254 -4.71259,3.279381 16.377759,-11.444802 1.884667,-1.316082 1.804724,-1.2631 -0.384766,0.25501 0.740991,-0.570554 1.097913,-0.88008 1.584414,-1.37401 3.038577,-2.96698 4.526667,-4.48852 3.605859,-3.72961 7.140793,-7.560624 10.611329,-11.476593 1.139469,-1.280777 2.302974,-2.533824 3.401267,-3.86839 0.128834,-0.156552 0.223467,-0.360226 0.374184,-0.484297 0.03309,-0.02724 0.06771,0.07093 0.0688,0.119628 0.006,0.267891 -0.03222,0.534536 -0.04833,0.801806 -2.074651,0.93943 -9.059117,5.920447 -0.903989,0.203379 -4.11108,2.969956 -8.09436,6.191358 -12.152801,9.265818 -1.518014,1.188338 -3.07699,2.29537 -4.605662,3.462622 -0.344144,0.26278 -0.802242,0.712186 -1.202421,0.915903 -0.114561,-0.318882 -0.301625,-0.612251 -0.343682,-0.956643 -0.01151,-0.09433 0.143482,-0.0762 0.211941,-0.122141 0.237571,-0.159445 0.972613,-0.582667 0.738844,-0.415059 -7.421837,5.321245 -6.272062,4.447966 -4.465627,3.057873 1.255179,-0.986553 2.441754,-2.082129 3.565199,-3.280371 1.5885,-1.681245 2.908266,-3.711748 4.519762,-5.360442 1.849651,-0.811751 3.650712,-1.812728 5.548954,-2.435257 0.208401,-0.06835 -0.175352,0.482757 -0.285654,0.709162 -0.498995,1.024264 -1.207871,1.939273 -1.838921,2.84135 -1.87027,2.869831 -3.953525,5.505932 -6.047507,8.130659 -0.710218,0.979532 -1.52078,1.866775 -2.158844,2.924446 -0.07507,0.124452 -0.12959,0.265559 -0.194746,0.398073 -0.01007,0.02055 -0.03188,0.08502 -0.03102,0.06109 0.0041,-0.112844 0.02726,-0.223423 0.0409,-0.335135 1.26399,-0.77737 2.633522,-1.265017 3.918584,-1.999726 1.924929,-1.167253 5.276272,-3.446524 -3.391408,2.434589 -0.22768,0.154482 0.434395,-0.35136 0.645988,-0.536824 0.261026,-0.228805 1.01937,-0.949585 1.268257,-1.184657 0.199089,-0.07152 1.712794,-1.755249 1.8125,-1.736694 0.261061,0.04858 0.03983,0.414934 0.01052,0.479864 -0.851398,0.355539 -1.729595,0.617433 -2.583453,0.970283 -0.626368,0.169734 -1.608016,1.222421 -2.248814,1.054461 -0.103431,-0.02711 -0.183254,-0.129087 -0.274883,-0.193628 -0.07609,-0.189652 -0.191319,-0.362653 -0.228286,-0.568955 -0.159724,-0.891334 0.731697,-2.241587 1.122499,-2.92415 0.955723,-1.410382 1.981594,-2.752299 3.049545,-4.036808 1.920958,-2.146262 4.241176,-3.340274 6.613866,-4.866511 0.376728,-0.24233 0.775694,0.396402 0.95104,0.663147 0.431748,1.209906 -0.223026,2.250032 -0.834877,3.152185 -0.693778,0.937716 -1.569014,1.629669 -2.324065,2.484243 0.142216,-0.267768 -0.188704,0.36138 -0.235439,0.248347 -0.0504,-0.121898 -0.104504,-0.266592 -0.07659,-0.398815 0.02196,-0.103994 0.761946,-0.481954 0.82499,-0.525519 -1.658472,1.148558 -3.310492,2.311112 -4.975417,3.445672 -0.146147,0.09959 0.280859,-0.222516 0.417846,-0.339919 0.438757,-0.376035 0.846919,-0.822278 1.313259,-1.148976 1.915823,-1.342145 3.843364,-2.659203 5.765049,-3.988803 0.685584,-0.528688 1.457567,-0.89425 2.274449,-0.784291 0.790322,0.7051 0.502554,1.25471 -0.128062,1.812359 -0.230245,0.232966 -0.210228,-0.104155 -0.112554,-0.26364 0.06384,-0.104224 0.1695,-0.157872 0.254252,-0.236806 -1.610854,1.108414 -3.221708,2.216829 -4.832562,3.325241 3.011328,-2.32073 5.712155,-5.160472 8.42282,-7.962217 2.340574,-2.293936 4.634249,-4.670735 7.026521,-6.885068 2.246923,-1.832907 2.010029,-1.666505 6.368591,-4.429394 0.461352,-0.292454 0.892989,0.482208 0.897704,0.921608 0.0023,0.210078 -0.111105,0.397699 -0.166657,0.596546 -2.93406,2.949966 -6.701637,5.163746 -10.371975,6.582594 -2.019761,0.736234 -3.990545,1.64644 -6.037178,2.269436 -0.973505,0.311789 -1.977116,0.358256 -2.973533,0.460554 -1.707924,-2.4445 5.632705,-4.944974 7.707989,-5.94823 1.295227,-0.670932 2.696569,-0.960683 4.013,-1.535717 0.206906,-0.09535 1.622792,-0.691074 1.722544,-0.310212 0.08053,0.307463 0.08607,0.636981 0.129105,0.95547 -1.953373,1.339765 -3.874875,2.751262 -5.860118,4.019293 -0.183582,0.117263 -1.753323,0.478931 -1.855207,0.500304 -1.141809,0.239519 -2.293991,0.374942 -3.446216,0.511273 -1.405961,0.292971 -2.871295,0.02242 -4.268158,0.341116 -0.552482,0.14652 -0.240718,0.01412 -0.692526,0.30845 -0.09511,0.06195 -0.382319,0.243119 -0.288805,0.177652 11.678372,-8.175406 5.905955,-4.782687 4.679059,-3.095967 -0.416663,0.650613 -0.812018,1.28275 -1.346776,1.797047 -1.147916,1.101926 -2.178346,2.371501 -3.114004,3.737067 -0.08728,0.148252 -0.174556,0.296498 -0.261835,0.444748 0,0 -5.686928,3.04958 -5.686928,3.04958 v 0 c 0.08603,-0.17938 0.172064,-0.358763 0.258095,-0.538144 0.926407,-1.392927 1.930816,-2.69226 3.027589,-3.886473 0.541289,-0.476071 1.073549,-0.892828 1.375762,-1.650069 0.06487,-0.08848 0.13828,-0.16862 0.194594,-0.265429 0.06468,-0.111182 0.07114,-0.283838 0.166367,-0.355121 2.128672,-1.593442 4.14423,-3.866605 6.672543,-4.254025 1.401417,-0.09368 2.808748,-0.07222 4.205748,-0.267366 1.142725,-0.145354 2.283131,-0.294645 3.408462,-0.588398 2.390065,-0.623888 5.852852,-3.14315 -2.980113,2.795228 0.178532,0.206902 0.369298,0.399135 0.535603,0.620702 0.05647,0.07523 -0.147535,0.100265 -0.228286,0.126574 -0.421389,0.137239 -0.835954,0.300369 -1.251147,0.462971 -1.34092,0.449757 -2.672754,0.929946 -3.969689,1.549158 -0.655659,0.291153 -1.318215,0.555999 -1.962092,0.88481 -0.1569,0.08013 -0.603352,0.374186 -0.467698,0.248953 4.697413,-4.336584 5.739094,-2.153322 4.614966,-4.357319 0.958127,-0.04639 1.908141,-0.228501 2.837617,-0.515467 2.016032,-0.655698 3.977351,-1.528701 5.971647,-2.273887 1.058412,-0.453651 2.094558,-0.936738 3.109699,-1.522505 0.279084,-0.161039 1.091773,-0.702064 0.828114,-0.506073 -1.366191,1.015569 -6.45645,4.660645 -4.135984,2.970406 0.145374,-0.03515 0.400393,-0.192337 0.518864,0.05296 0.0014,0.0028 -0.619926,0.358314 -0.380562,0.183063 2.785452,-2.039348 6.76068,-4.794697 4.226504,-3.035447 -0.941404,0.803831 -1.808128,1.691528 -2.708483,2.561883 -1.49921,1.449262 -3.049147,2.821669 -4.495544,4.351886 -2.66859,2.752016 -5.2924,5.576792 -8.192317,7.971021 -1.950458,1.363561 -3.877001,2.779414 -5.851373,4.090687 -0.388338,0.25791 -0.769881,-0.162759 -0.944575,-0.541962 -0.174995,-0.379861 -0.123139,-0.401238 -0.0701,-0.779584 0.04703,-0.05885 0.539027,-0.563176 0.596744,-0.563126 0.08827,7e-5 0.155554,0.103588 0.225917,0.168644 0.05,0.04623 0.114287,0.0897 0.132645,0.162911 0.0086,0.03422 -0.05486,0.02528 -0.0823,0.03792 -0.756261,0.167838 -1.423737,0.583845 -2.094927,1.028476 1.626297,-1.15573 3.255324,-2.305756 4.878889,-3.467196 0.149066,-0.106642 -0.307875,0.192433 -0.455184,0.302644 -0.440172,0.329307 -0.466483,0.404248 -0.87233,0.793008 -1.863844,1.785377 -3.984322,2.893935 -6.098405,4.382912 -0.706292,0.263937 -1.946856,0.304924 -1.366967,-1.08568 0.635035,-1.023278 1.597378,-1.611196 2.339966,-2.508144 0.484372,-0.558372 1.093654,-1.285374 1.217349,-2.120104 -0.137759,-0.109696 -0.627848,0.203506 -0.486431,0.100994 8.948868,-6.486821 5.729455,-4.331271 3.97538,-2.725349 -1.080987,1.240566 -2.09087,2.562011 -3.070775,3.920881 -0.346103,0.510515 -0.692798,1.061722 -0.970478,1.632659 -0.07298,0.150062 -0.09346,0.335774 -0.178509,0.476049 -0.144076,0.237612 -0.181817,0.145011 -0.296122,0.0434 0.664214,-0.562748 1.560814,-0.739425 2.283061,-1.162701 0.912767,-0.322294 1.85665,-0.832453 2.820225,-0.659155 0.265314,0.238143 0.605578,0.426629 0.60802,0.926704 0.0014,0.281913 -1.642212,1.617717 -1.844532,1.862041 -0.615655,0.576142 -1.216863,1.294041 -1.882136,1.782192 -2.327842,1.708081 -4.680851,3.617262 -7.200902,4.972211 -0.772291,0.400318 -1.552517,0.761673 -2.338042,1.121357 -0.282134,0.129181 -1.038925,0.500732 -1.370531,0.56533 -0.164475,0.03204 -0.333094,-0.0043 -0.499642,-0.0065 -0.146001,-0.150683 -0.327061,-0.261972 -0.438002,-0.452054 -0.607662,-1.041139 1.931882,-3.463744 2.31567,-4.119888 2.079846,-2.572426 4.169317,-5.142042 5.954332,-8.032705 0.496332,-0.690842 0.968881,-1.396715 1.444253,-2.108664 0.135129,-0.20238 0.278566,-0.396448 0.411563,-0.600926 0.114898,-0.176648 0.169597,-0.434089 0.33184,-0.542026 1.913302,-1.2729 3.897931,-2.379084 5.846896,-3.568629 -1.775353,1.233777 -3.047115,3.71812 -4.616662,5.303196 -1.084818,1.233801 -2.226149,2.358897 -3.462524,3.360591 -2.249353,1.8162 -0.652701,0.542699 -6.193753,4.393264 -0.05517,0.03834 -0.984328,0.572301 -1.006036,0.550559 -0.228145,-0.228506 -0.345271,-0.584364 -0.517906,-0.876546 0.270937,-0.448555 0.972774,-0.85403 1.317603,-1.115301 1.574875,-1.193255 3.190896,-2.303038 4.750005,-3.527842 4.036948,-3.033311 7.98423,-6.237695 12.039391,-9.234772 3.738387,-2.630823 7.43989,-5.505167 11.445021,-7.534747 0.246681,0.144343 0.532593,0.215344 0.740038,0.433025 0.329441,0.345707 -0.282851,0.878825 -0.359113,0.970322 -1.140075,1.367865 -2.371889,2.622971 -3.543687,3.948528 -3.472502,3.910609 -6.999071,7.748624 -10.586283,11.502009 -0.543483,0.55645 -1.090872,1.107261 -1.630444,1.669351 -1.232309,1.283737 -2.432959,2.723025 -3.833243,3.745773 -2.057595,1.502839 -4.14508,2.943839 -6.219178,4.412487 -1.490633,1.055505 2.979192,-2.115368 4.468787,-3.173053 -1.971499,1.385681 -3.927662,2.804397 -5.914499,4.157036 -0.755083,0.51406 -1.332923,-0.372779 -1.003838,-0.852178 0.398753,-0.58089 1.150902,-0.71509 1.49825,-1.35067 5.471425,-4.875088 10.966096,-9.714851 16.24623,-14.900005 3.137501,-2.954007 6.276388,-5.842822 9.567425,-8.537907 0.717183,-0.58731 2.587042,-2.112204 3.498558,-2.754741 0.251523,-0.177302 0.519831,-0.316479 0.779747,-0.474715 0.16732,0.194581 0.468507,0.304616 0.501956,0.583749 0.02064,0.172409 -0.280661,0.0646 -0.41929,0.106088 -0.358404,0.107264 -0.715029,0.223277 -1.071433,0.340048 -1.721379,0.563979 -3.430905,1.18416 -5.093695,1.973467 -2.76768,1.39138 -5.43032,3.013985 -8.060254,4.755902 -0.639319,0.379207 -1.311118,0.832043 -1.990128,1.101414 -0.15582,0.06181 -0.605893,0.247667 -0.482155,0.116574 4.14952,-4.396331 2.887681,-3.764155 5.045904,-4.771569 2.431462,-1.021679 4.909966,-1.872798 7.444839,-2.420578 5.431046,-1.233487 10.876933,-2.367693 16.30486,-3.618979 0.68204,-0.197453 1.36819,-0.374901 2.04615,-0.592358 0.46127,-0.147957 1.75488,-0.847362 1.37007,-0.50341 -1.43416,1.281896 -3.20933,1.960081 -4.56688,3.3608 -1.17751,1.214952 1.30409,0.520021 0.46826,0.734284 -0.25481,0.06537 -0.50964,0.130736 -0.76446,0.196109 -6.118983,1.615883 -12.149459,3.724104 -18.143095,5.917577 -3.535578,1.437549 -5.094468,2.018031 -8.560336,3.636796 -3.68171,1.719575 -7.26997,3.718245 -10.929764,5.502274 -0.399469,0.207064 -0.801029,0.408212 -1.198406,0.62119 -2.842031,1.523205 -2.397856,2.362473 3.588277,-3.196022 0.107449,-0.09978 -0.286222,-0.213294 -0.26327,-0.375696 0.01824,-0.129046 0.213868,-0.02088 0.320799,-0.03132 4.146495,-0.711582 8.208949,-1.968001 12.303947,-3.012598 7.230278,-2.014775 14.47287,-4.156124 21.869208,-5.035223 3.18331,-0.383598 6.36631,-0.592041 9.5632,-0.689637 0.34485,-0.03767 1.04082,-0.09328 1.39594,-0.204936 0.15084,-0.04743 0.56011,-0.324689 0.43277,-0.215186 -1.62988,1.401544 -3.32614,2.686175 -4.94943,4.099084 -0.11134,0.09691 0.87682,0.380158 -0.21616,0.0011 -0.88631,-0.12987 -1.73318,-0.07951 -2.62576,-0.01054 -1.9293,0.149087 -3.854955,0.363833 -5.775685,0.630689 -6.824227,1.032305 -13.601001,2.461904 -20.322407,4.237921 -4.76796,1.168654 -9.566732,2.26284 -14.196359,4.11782 0,0 4.905573,-4.652395 4.905573,-4.652395 z"
       inkscape:connector-curvature="0" />
    <path
       style="fill:#241c1c;stroke-width:0.41863868"
       id="path4083"
       d="m 104.24045,21.581912 c 1.032,-0.01798 2.11194,0.159101 3.12315,-0.253768 0.1557,-0.06357 0.58335,-0.405817 0.44305,-0.288448 -2.03581,1.702953 -4.08767,3.364561 -6.13151,5.046843 0.0367,0.07175 0.31763,0.47799 0.0735,0.617844 -0.14241,0.0816 -0.3049,-0.03634 -0.45736,-0.05427 -0.21927,-0.02581 -0.43794,-0.08714 -0.65781,-0.07705 -0.715925,0.0329 -1.803889,0.36227 -2.450028,0.528065 -4.495423,1.259211 -9.057444,1.920751 -13.612262,2.523944 -0.228569,-0.639221 -2.41429,1.12549 -2.58607,-0.148217 -0.05862,-0.434548 -0.180394,-1.077211 0.07097,-1.324672 4.916453,-4.840106 4.837779,-4.691293 8.121992,-6.184858 2.746842,-1.184103 5.475218,-2.452855 8.201805,-3.732445 2.077183,-0.725091 4.046933,-1.92909 6.119803,-2.673516 3.07273,-0.744124 5.27377,-5.208371 -4.48768,4.359294 0.21454,0.858231 0.35562,0.659358 -0.06451,0.854111 -1.610594,-0.02666 -3.230725,0.337134 -4.818364,0.726838 -3.544778,1.228826 -7.088186,2.428487 -10.677509,3.349269 -1.088257,0.128535 -2.157337,0.600192 -3.243639,0.745932 -0.490662,0.06582 -0.698705,-0.161396 -0.629154,-0.234041 2.135725,-2.230514 4.361326,-4.271281 6.541988,-6.406921 3.45511,-0.890493 6.889422,-1.973577 10.351642,-2.832184 3.276396,-0.71004 6.528986,-2.005972 9.849626,-2.202184 1.26191,-0.08489 2.00792,0.24433 3.03913,1.200006 0.81643,0.534417 1.34681,1.635792 1.93897,2.565638 0.63583,1.362333 1.50732,2.35769 2.34908,3.418156 0.63835,0.727588 1.28636,1.463362 1.85256,2.312083 1.82744,3.212122 -4.49943,7.324073 -6.85295,5.552237 -0.7035,-0.529633 -1.37888,-1.172109 -2.04988,-1.782494 -1.25987,-1.113283 -2.60455,-1.991935 -3.87031,-3.088947 -2.49281,-3.103523 5.22922,-5.654783 6.20069,-6.397897 0.12487,-0.09549 1.26707,0.75908 1.38081,0.860412 0.81061,0.440504 1.46519,1.340091 2.24177,1.862455 0.34503,0.232077 1.26975,0.59593 1.57555,0.725067 2.95021,0.861651 5.91608,1.599531 8.87686,2.378627 1.09351,0.585449 2.66927,0.172184 3.70188,1.007215 0,0 -6.15825,5.99722 -6.15825,5.99722 v 0 c -1.15833,-0.260908 -2.29641,-0.763279 -3.46426,-0.957179 -2.98874,-0.831186 -5.99776,-1.505674 -8.97519,-2.41755 -1.50117,-0.67546 -2.57668,-1.65178 -3.94639,-2.706708 -0.47554,-0.289378 -0.37984,-0.260957 -0.90159,-0.449583 -0.12068,-0.04363 -0.46527,-0.0046 -0.36487,-0.111532 8.55124,-9.112843 4.57144,-7.254696 6.00928,-5.629853 1.25064,1.112569 2.58328,2.008275 3.82855,3.135059 0.59337,0.513943 0.84024,0.748738 1.4496,1.196535 2.90725,2.136419 3.02864,-1.229101 -4.94955,6.533632 -0.0169,0.01645 -0.0199,-0.05147 -0.0299,-0.07722 -0.55621,-0.817532 -1.18277,-1.529688 -1.79249,-2.258313 -0.86614,-1.077672 -1.70596,-2.178055 -2.38897,-3.521082 -0.56236,-0.87361 -1.08899,-1.793324 -1.85447,-2.302489 -0.83773,-0.7241 -1.76312,-0.802288 -2.72485,-0.730769 -3.243472,0.320685 -6.433183,1.378041 -9.636932,2.12655 -3.530966,0.919952 -7.028849,2.061121 -10.547973,3.065527 1.820464,-2.037082 3.648718,-4.059382 5.46139,-6.11125 0.01704,-0.01928 -0.0031,-0.0827 0.01776,-0.09093 1.109397,-0.43761 2.357306,-0.183622 3.460091,-0.699124 3.61006,-0.924638 7.157809,-2.223041 10.732124,-3.393824 1.66221,-0.385879 3.38315,-0.841428 5.06564,-0.51336 3.6825,2.507607 -4.53527,6.688888 -7.300254,7.441408 -2.028935,0.807133 -3.998953,1.898457 -6.038732,2.655224 -2.73982,1.257806 -5.480979,2.508933 -8.219055,3.774056 -3.496893,1.841351 1.048287,-0.441361 4.471854,-4.257632 0.226042,-0.251971 -0.997096,-0.635674 -0.714471,-0.680654 0.709484,-0.112909 1.436772,0.190298 2.13846,-0.153401 4.566032,-0.543027 9.128723,-1.257938 13.617998,-2.631207 1.16906,-0.26274 3.57101,-1.205968 4.44788,0.655917 0.0927,0.196732 0.0945,0.457219 0.14185,0.685829 -6.46246,5.424453 -5.06385,5.799983 -10.245663,5.78731 0,0 5.945683,-6.312733 5.945683,-6.312733 z"
       inkscape:connector-curvature="0" />
    <path
       style="fill:#ffcc00;stroke-width:0.26458332"
       id="path4093"
       d="m 95.302513,99.994729 c 1.643248,1.419581 3.458107,2.624761 5.238677,3.862681 1.25225,0.87564 2.58887,1.62238 3.84012,2.49916 0.54943,0.51022 1.12666,0.97595 1.70124,1.45193 0.43262,0.48154 0.86969,0.90566 1.43923,1.22315 0.42423,0.31283 0.89121,0.55942 1.354,0.80988 0,0 -4.71816,3.07081 -4.71816,3.07081 v 0 c -0.45782,-0.26818 -0.92828,-0.51492 -1.35831,-0.82779 -0.56056,-0.36354 -1.02159,-0.80932 -1.48566,-1.28428 -0.57541,-0.45363 -1.08805,-0.96991 -1.654336,-1.43521 -1.242859,-0.86824 -2.529109,-1.67258 -3.768534,-2.5458 -1.793534,-1.27137 -3.62031,-2.4991 -5.351986,-3.85478 0,0 4.763719,-2.969751 4.763719,-2.969751 z"
       inkscape:connector-curvature="0" />
    <path
       style="fill:#ffcc00;stroke-width:0.26458332"
       id="path4095"
       d="m 109.23033,108.86826 c 1.46235,-0.46416 2.95264,-0.83652 4.40869,-1.32191 1.28977,-0.43938 2.63629,-0.67038 3.95439,-1.0051 1.05199,-0.2855 2.12655,-0.45331 3.2123,-0.53024 1.21504,-0.22535 2.40109,-0.57787 3.61163,-0.82503 0.2153,-0.0372 0.4306,-0.0744 0.6459,-0.11164 0,0 -4.45592,3.36265 -4.45592,3.36265 v 0 c -0.21042,0.0409 -0.42084,0.0818 -0.63127,0.12275 -1.2223,0.27998 -2.43331,0.64074 -3.6811,0.78796 -1.05973,0.10749 -2.10453,0.30746 -3.13457,0.58017 -1.31396,0.31104 -2.63962,0.58679 -3.91853,1.02701 -1.48605,0.45992 -2.9836,0.88772 -4.47978,1.31148 0,0 4.46826,-3.3981 4.46826,-3.3981 z"
       inkscape:connector-curvature="0" />
    <path
       style="fill:#ffcc00;stroke-width:0.26458332"
       id="path4097"
       d="m 101.7616,99.60254 c 1.08358,0.90535 2.33723,1.57651 3.45245,2.43911 0.72349,0.56327 1.5,1.0478 2.22015,1.61545 0.67665,0.43145 1.30417,0.95179 2.02657,1.30546 0.61435,0.28324 1.05563,0.81716 1.6391,1.14364 0.51018,0.30552 0.98988,0.6529 1.48791,0.97634 0,0 -4.73546,3.03166 -4.73546,3.03166 v 0 c -0.48643,-0.33327 -0.97957,-0.65527 -1.48464,-0.95983 -0.53872,-0.37073 -1.01246,-0.8384 -1.61312,-1.11636 -0.71551,-0.41933 -1.38581,-0.91493 -2.06501,-1.38976 -0.72762,-0.55157 -1.49921,-1.04232 -2.20469,-1.62379 -1.118762,-0.85717 -2.338576,-1.57434 -3.463534,-2.42374 0,0 4.740274,-2.99818 4.740274,-2.99818 z"
       inkscape:connector-curvature="0" />
    <path
       style="fill:#ffcc00;stroke-width:0.26458332"
       id="path4107"
       d="m 105.88585,99.994729 c 1.26737,1.154831 2.62171,2.210341 4.01244,3.211661 1.11841,0.74224 2.26776,1.44595 3.44963,2.08373 0.75062,0.41229 1.45791,0.89192 2.17681,1.35463 0,0 -4.72534,3.02862 -4.72534,3.02862 v 0 c -0.69442,-0.46979 -1.39863,-0.92493 -2.13526,-1.32685 -1.1871,-0.66095 -2.33658,-1.39497 -3.45473,-2.16579 -1.39442,-1.03085 -2.74769,-2.11532 -4.08727,-3.21625 0,0 4.76372,-2.969751 4.76372,-2.969751 z"
       inkscape:connector-curvature="0" />
    <path
       style="fill:#ffcc00;stroke-width:0.26458332"
       id="path4109"
       d="m 110.42156,99.238778 c 0.79446,0.848662 1.68461,1.585822 2.5794,2.321272 0.55004,0.61956 1.21274,1.1142 1.85207,1.6346 0.67033,0.41056 1.20333,1.01402 1.88732,1.39892 0.51545,0.33809 0.83811,0.87516 1.26867,1.3007 0.27432,0.31882 0.13286,0.17361 0.42079,0.43911 0,0 -4.79388,2.94942 -4.79388,2.94942 v 0 c -0.30207,-0.30314 -0.15926,-0.15104 -0.42971,-0.45508 -0.38408,-0.4094 -0.71037,-0.88632 -1.19528,-1.18755 -0.66084,-0.453 -1.24089,-1.01481 -1.90459,-1.46599 -0.64786,-0.5156 -1.30413,-1.01987 -1.85917,-1.63932 -0.89239,-0.74465 -1.73373,-1.53946 -2.58934,-2.32633 0,0 4.76372,-2.969752 4.76372,-2.969752 z"
       inkscape:connector-curvature="0" />
    <path
       style="fill:#ffcc00;stroke-width:0.26458332"
       id="path4111"
       d="m 116.11332,99.914304 c 1.22225,0.838966 2.43015,1.707956 3.72376,2.434996 0.6947,0.56998 1.48768,1.00916 2.16076,1.60389 0.47428,0.29652 0.80571,0.74675 1.21069,1.12077 0,0 -4.78665,2.94962 -4.78665,2.94962 v 0 c -0.38796,-0.37916 -0.74952,-0.78251 -1.19838,-1.09398 -0.66313,-0.5484 -1.38296,-1.02489 -2.06914,-1.54327 -1.27502,-0.77572 -2.48619,-1.65167 -3.75857,-2.43184 0,0 4.71753,-3.040186 4.71753,-3.040186 z"
       inkscape:connector-curvature="0" />
    <path
       style="fill:#ffcc00;stroke-width:0.26458332"
       id="path4113"
       d="m 118.33637,98.942759 c 0.79549,0.918258 1.57467,1.844631 2.47532,2.664411 0.58773,0.52035 1.24833,0.94754 1.86777,1.42888 0.30999,0.27956 0.66051,0.50737 0.99763,0.75185 0,0 -4.73767,3.00814 -4.73767,3.00814 v 0 c -0.34181,-0.2464 -0.68535,-0.49109 -1.00994,-0.76025 -0.6423,-0.47809 -1.30182,-0.9384 -1.88727,-1.48695 -0.88366,-0.86333 -1.66599,-1.81492 -2.5146,-2.70982 0,0 4.80876,-2.896261 4.80876,-2.896261 z"
       inkscape:connector-curvature="0" />
    <path
       style="fill:#ffcc00;stroke-width:0.26458332"
       id="path4115"
       d="m 116.44648,97.430853 c 0.87047,0.901372 1.65482,1.879831 2.48669,2.814847 0.46517,0.58785 0.99674,1.11461 1.47554,1.69059 0.38519,0.47994 0.93706,0.75137 1.34556,1.20058 0.28766,0.44572 0.62981,0.82248 0.99161,1.20586 0,0 -4.80717,2.92898 -4.80717,2.92898 v 0 c -0.36339,-0.37971 -0.68052,-0.78174 -0.99249,-1.20264 -0.43828,-0.42634 -0.98151,-0.74059 -1.35995,-1.23503 -0.48076,-0.567 -0.99216,-1.10747 -1.44529,-1.69767 -0.81171,-0.95599 -1.60242,-1.93316 -2.50325,-2.80925 0,0 4.80875,-2.896267 4.80875,-2.896267 z"
       inkscape:connector-curvature="0" />
    <path
       style="fill:#c87137;stroke-width:0.26458332"
       id="path4125"
       d="m 190.08364,203.43055 c 2.19581,0.38 4.42388,0.54016 6.64161,0.74128 2.45017,0.29884 4.90887,0.5139 7.37346,0.64546 1.01347,0.0443 2.07861,0.0157 3.03295,0.40668 0.79723,0.22736 1.52488,0.61611 2.2706,0.972 0.81303,0.27837 1.54011,0.74324 2.32986,1.06976 0.10605,0.0317 0.2121,0.0634 0.31815,0.0951 0,0 -4.6571,3.15024 -4.6571,3.15024 v 0 c -0.11462,-0.0453 -0.22923,-0.0906 -0.34384,-0.13596 -0.77091,-0.37151 -1.52668,-0.77307 -2.32268,-1.09203 -0.73223,-0.35373 -1.47525,-0.66286 -2.253,-0.90307 -0.9442,-0.2437 -1.91571,-0.27929 -2.88557,-0.32933 -2.44727,-0.18253 -4.88858,-0.42962 -7.3281,-0.69551 -2.25127,-0.20127 -4.50455,-0.38106 -6.74638,-0.67339 0,0 4.57004,-3.25123 4.57004,-3.25123 z"
       inkscape:connector-curvature="0" />
    <path
       style="fill:#803300;stroke-width:0.26458332"
       id="path4137"
       d="m 10.311065,208.84035 c 4.390737,1.25478 8.830561,2.33839 13.256373,3.46416 4.916466,1.2717 9.853266,2.46505 14.788875,3.66059 0.519136,0.11762 1.038272,0.23524 1.557409,0.35285 0,0 -12.897731,8.87152 -12.897731,8.87152 v 0 c -0.482179,-0.14665 -0.964361,-0.2933 -1.446541,-0.43995 -4.785246,-1.43433 -9.64311,-2.58406 -14.475909,-3.8443 -4.6129422,-1.15063 -9.2387652,-2.28889 -13.9535316,-2.94462 0,0 13.1710556,-9.12025 13.1710556,-9.12025 z"
       inkscape:connector-curvature="0" />
    <path
       style="fill:#552200;stroke-width:0.26458332"
       id="path4139"
       d="m 15.928294,236.02815 c 8.959385,2.94241 18.132302,5.15396 27.254352,7.51974 10.061987,2.49321 19.923773,5.70264 29.922223,8.42304 0.840235,0.21087 1.680467,0.42174 2.520699,0.63262 0,0 -12.622384,8.61997 -12.622384,8.61997 v 0 c -0.763527,-0.27039 -1.527054,-0.54079 -2.29058,-0.81119 -9.476574,-3.3865 -18.987728,-6.70374 -28.770712,-9.11575 -9.634519,-2.37773 -19.321591,-4.65484 -29.1294842,-6.19471 0,0 13.1158862,-9.07372 13.1158862,-9.07372 z"
       inkscape:connector-curvature="0" />
    <path
       style="fill:#552200;stroke-width:0.26458332"
       id="path4143"
       d="m 8.1971644,248.39617 c 0.3444716,0.17145 0.6811541,0.35953 1.0334151,0.51435 2.4519965,1.07764 4.9986815,1.95498 7.5105135,2.87621 6.034438,2.21316 2.17841,0.86078 8.82941,3.10906 9.432276,3.20349 18.882666,6.35325 28.321531,9.53743 2.980931,1.00561 5.947902,2.05278 8.935916,3.03714 3.048759,1.00438 6.115748,1.95254 9.173622,2.9288 13.424165,4.14616 26.878836,8.24439 40.593418,11.32642 3.4314,0.81783 6.92104,1.3203 10.39873,1.88439 0,0 -12.84421,8.93056 -12.84421,8.93056 v 0 c -3.17968,-0.84408 -6.37707,-1.62312 -9.52798,-2.57347 -13.078097,-3.90697 -25.968804,-8.39867 -38.980798,-12.51612 -15.900497,-5.01221 -31.785493,-10.08385 -47.85748,-14.52771 -6.2976427,-1.8359 -12.5578353,-3.81397 -18.8987349,-5.49456 0,0 13.3126473,-9.0325 13.3126473,-9.0325 z"
       inkscape:connector-curvature="0" />
    <path
       style="fill:#552200;stroke-width:0.26458332"
       id="path4145"
       d="m 22.983228,281.52259 c 3.137479,0.90353 6.355407,1.45883 9.554497,2.0865 2.836881,0.55663 5.668796,1.13829 8.504177,1.70249 8.422941,1.59983 16.812984,3.38045 25.25301,4.88783 4.874503,0.77955 9.671968,1.94652 14.517714,2.87245 0.342749,0.0625 0.685501,0.12502 1.02825,0.18754 0,0 -13.054886,9.02653 -13.054886,9.02653 v 0 c -0.298928,-0.0902 -0.597857,-0.18045 -0.896786,-0.27067 -4.535525,-1.27085 -9.089028,-2.46902 -13.719932,-3.35013 -8.343921,-1.69074 -16.662997,-3.5061 -25.038576,-5.03896 -6.392364,-1.17478 -12.811044,-2.22502 -19.2788251,-2.89052 0,0 13.1313571,-9.21306 13.1313571,-9.21306 z"
       inkscape:connector-curvature="0" />
    <path
       style="fill:#803300;stroke-width:0.26458332"
       id="path4165"
       d="m 101.72528,258.60284 c 7.83368,3.69768 15.82287,7.05732 23.82598,10.36879 8.05978,3.22482 16.29626,5.97834 24.55333,8.64727 2.80227,0.86778 5.59778,1.75742 8.40207,2.61858 0,0 -12.97967,8.77536 -12.97967,8.77536 v 0 c -2.59772,-1.04079 -5.21589,-2.02576 -7.84341,-2.98897 -7.99666,-2.97723 -16.00362,-5.93183 -23.89147,-9.19065 -8.30024,-3.39175 -16.562673,-6.96751 -25.205473,-9.4139 0,0 13.138643,-8.81648 13.138643,-8.81648 z"
       inkscape:connector-curvature="0" />
    <path
       style="fill:#803300;stroke-width:0.26458332"
       id="path4169"
       d="m 102.90709,241.32029 c 12.49101,5.9421 25.52951,10.61452 38.4394,15.54337 14.90455,5.5622 29.7844,11.18608 44.63772,16.88351 9.30358,3.53677 18.58384,7.13328 27.86022,10.74037 0,0 -12.63194,8.39472 -12.63194,8.39472 v 0 c -2.06235,-1.04185 -3.49544,-1.78204 -5.64742,-2.78929 -6.8169,-3.19069 -13.8176,-5.96543 -20.77085,-8.83906 -4.54249,-1.82698 -9.06736,-3.69809 -13.62237,-5.49365 -10.16377,-4.00654 -20.44421,-7.71322 -30.64506,-11.6228 -7.76368,-2.9594 -15.53835,-5.87584 -23.37159,-8.64737 -4.89596,-1.73228 -8.194195,-2.91882 -13.082012,-4.33216 -1.346293,-0.38929 -2.714239,-0.69935 -4.071361,-1.04902 0,0 12.905263,-8.78862 12.905263,-8.78862 z"
       inkscape:connector-curvature="0" />
    <path
       style="fill:#784421;stroke-width:0.26458332"
       id="path4171"
       d="m 135.39398,234.91986 c 0.44146,0.21331 0.87346,0.44744 1.32439,0.63994 0.92138,0.39331 4.40455,1.69493 5.06985,1.93801 3.88784,1.42048 7.81314,2.73643 11.72999,4.07382 8.6713,2.93516 17.45018,5.536 26.15194,8.37615 7.07612,2.34389 14.05963,4.94778 21.06049,7.50304 0.60401,0.23501 1.20802,0.47002 1.81203,0.70503 0,0 -12.93409,8.60291 -12.93409,8.60291 v 0 c -0.53485,-0.26509 -1.0697,-0.53017 -1.60455,-0.79526 -6.61461,-3.01592 -13.40134,-5.6012 -20.30538,-7.88064 -8.71989,-2.82858 -17.51165,-5.43426 -26.20292,-8.35369 -6.41139,-2.08255 -12.8471,-4.09838 -19.3559,-5.85762 0,0 13.25415,-8.95169 13.25415,-8.95169 z"
       inkscape:connector-curvature="0" />
    <path
       style="fill:#a05a2c;stroke-width:0.26458332"
       id="path4173"
       d="m 174.30174,221.92186 c 2.53076,1.62149 5.1579,3.08941 7.82649,4.47182 3.22494,1.58383 6.47184,3.11758 9.76664,4.55039 2.11284,0.8674 4.28848,1.5692 6.40768,2.41643 1.2289,0.39702 2.42098,0.89215 3.62989,1.34318 0,0 -13.2393,8.8715 -13.2393,8.8715 v 0 c -1.16363,-0.49546 -2.34217,-0.94999 -3.52973,-1.3851 -2.14352,-0.78699 -4.2854,-1.58595 -6.34446,-2.57922 -3.22394,-1.55746 -6.42293,-3.16583 -9.65408,-4.70827 -2.78847,-1.42168 -5.54949,-2.89504 -8.34099,-4.31053 0,0 13.47786,-8.6702 13.47786,-8.6702 z"
       inkscape:connector-curvature="0" />
    <path
       style="fill:#c87137;stroke-width:0.26458332"
       id="path4175"
       d="m 192.34822,210.81697 c 1.48792,1.14203 3.15486,2.01538 4.66627,3.11849 0.85994,0.58002 1.69123,1.16888 2.42962,1.8987 0.54824,0.66987 1.07,1.36123 1.57531,2.06307 0.34018,0.25112 0.75145,1.05636 1.10909,1.19469 -0.12965,-0.25108 -0.30291,-0.48408 -0.38894,-0.75324 -0.0199,-0.0622 0.11399,0.0652 0.17576,0.0862 0.0197,0.007 0.0499,-0.022 0.0622,-0.005 0.34642,0.47383 0.57046,0.87289 0.81429,1.37448 0.21107,0.50582 0.41692,1.01059 0.6563,1.50368 0,0 -13.95291,7.92203 -13.95291,7.92203 v 0 c -0.22184,-0.45808 -0.40945,-0.93303 -0.67426,-1.36848 -0.0976,-0.14302 -0.40266,-0.59449 -0.26705,-0.36948 0.13487,0.2238 0.28182,0.44009 0.42273,0.66013 -0.0115,0.003 -0.0295,-0.002 -0.0346,0.008 -0.0171,0.0358 0.003,0.14418 -0.0249,0.11644 -0.21434,-0.20953 -0.37906,-0.46442 -0.56858,-0.69662 -0.37842,-0.51262 -0.83335,-0.96432 -1.2021,-1.48544 -0.43924,-0.62385 -0.87968,-1.25111 -1.40297,-1.80849 -0.70345,-0.64176 -1.47552,-1.19976 -2.21065,-1.80418 -1.45159,-1.09849 -3.01169,-2.08691 -4.65056,-2.87847 0,0 13.46596,-8.77651 13.46596,-8.77651 z"
       inkscape:connector-curvature="0" />
    <path
       style="fill:#552200;stroke-width:0.26458332"
       id="path4177"
       d="m 53.314484,224.68636 c 3.339012,1.91455 6.811721,3.59033 10.279099,5.25789 4.452842,2.26467 8.758764,4.80319 13.136105,7.20865 2.977218,1.83741 6.184497,3.26513 9.209664,5.01236 0.901732,0.47458 1.79393,0.99038 2.737564,1.37733 0.107553,0.0286 0.215106,0.0572 0.322657,0.0857 0,0 -13.374005,8.97526 -13.374005,8.97526 v 0 c -0.128423,-0.0636 -0.256849,-0.12727 -0.385273,-0.19091 -0.913201,-0.49869 -1.818719,-1.0107 -2.652255,-1.63872 -2.795561,-1.88123 -5.711298,-3.58539 -8.607165,-5.30509 -4.380087,-2.41653 -8.757065,-4.8468 -13.259181,-7.03104 -3.551515,-1.72714 -7.064089,-3.552 -10.756921,-4.96784 0,0 13.349711,-8.78364 13.349711,-8.78364 z"
       inkscape:connector-curvature="0" />
    <ellipse
       style="fill:#aa8800;stroke-width:0.26458332"
       id="path3861"
       cx="180.67261"
       cy="175.66963"
       rx="10.583333"
       ry="12.473214" />
    <flowRoot
       xml:space="preserve"
       id="flowRoot4180"
       style="font-style:normal;font-variant:normal;font-weight:normal;font-stretch:normal;font-size:40px;line-height:1.25;font-family:'Bell MT';-inkscape-font-specification:'Bell MT';letter-spacing:0px;word-spacing:0px;fill:#000000;fill-opacity:1;stroke:none"
       transform="matrix(0.26458333,0,0,0.42203613,260.04763,-35.82606)"><flowRegion
         id="flowRegion4182"><rect
           id="rect4184"
           width="222.85713"
           height="102.85713"
           x="-524.28571"
           y="363.94824" /></flowRegion><flowPara
         id="flowPara4186">OSSD 2020</flowPara></flowRoot>    <path
       sodipodi:type="spiral"
       style="fill:none;fill-rule:evenodd;stroke:#000000;stroke-width:0.26458332"
       id="path4027-5"
       sodipodi:cx="80.139824"
       sodipodi:cy="55.258858"
       sodipodi:expansion="1"
       sodipodi:revolution="3"
       sodipodi:radius="1.5584358"
       sodipodi:argument="-15.952942"
       sodipodi:t0="0"
       d="m 80.139824,55.258858 c -0.07581,0.01895 -0.06294,-0.09283 -0.0315,-0.125992 0.08522,-0.08986 0.228006,-0.02685 0.283482,0.063 0.09923,0.160716 1.76e-4,0.364015 -0.15749,0.440972 -0.231382,0.112938 -0.502259,-0.02621 -0.598462,-0.251984 -0.128225,-0.300919 0.05241,-0.641347 0.346478,-0.755953 0.370051,-0.144219 0.780849,0.0785 0.913442,0.440973 0.160588,0.438997 -0.104529,0.920588 -0.535466,1.070932 -0.507844,0.177176 -1.060475,-0.130512 -1.228423,-0.62996 -0.193902,-0.576633 0.156468,-1.20046 0.724455,-1.385913 0.645382,-0.210723 1.340514,0.182404 1.543403,0.818949 0.22761,0.714107 -0.208326,1.480618 -0.913443,1.700892 -0.782814,0.244547 -1.62076,-0.234236 -1.858383,-1.007936" />
    <path
       style="fill:#241c1c;stroke-width:0.26458332"
       id="path3961"
       d="m 112.04595,124.09666 c -2.63223,16.01311 -3.00388,32.30245 -3.5003,48.4917 -0.36342,10.62601 -0.19378,21.25766 0.0693,31.88293 0,0 -9.36615,4.78605 -9.36615,4.78605 v 0 c 0.0136,-10.72295 0.04924,-21.44751 0.394763,-32.16608 0.452027,-16.04692 0.858787,-32.12208 2.458377,-48.10436 0,0 9.94397,-4.89024 9.94397,-4.89024 z"
       inkscape:connector-curvature="0" />
    <path
       style="fill:#ffcc00;stroke-width:0.26458332"
       id="path96"
       d="m 93.534766,103.37542 c 1.333455,0.94283 2.757167,1.74123 4.146447,2.59726 0.672459,0.44859 1.401704,0.80057 2.093364,1.21642 0.418383,0.25155 0.815603,0.52474 1.244663,0.7585 0.53864,0.38911 1.12185,0.69886 1.65315,1.09849 0.54222,0.41071 1.1244,0.75549 1.72155,1.07789 0.22877,0.14345 0.46125,0.26115 0.68202,0.41691 0,0 -4.90149,3.14087 -4.90149,3.14087 v 0 c -0.21746,-0.1327 -0.438371,-0.25922 -0.657073,-0.38985 -0.588965,-0.35923 -1.174379,-0.72116 -1.72584,-1.13736 -0.543991,-0.35303 -1.10526,-0.67738 -1.629418,-1.06133 -1.073107,-0.69074 -2.12426,-1.41467 -3.228324,-2.05787 -1.402003,-0.86987 -2.836714,-1.68611 -4.277722,-2.48859 0,0 4.878673,-3.17134 4.878673,-3.17134 z"
       inkscape:connector-curvature="0" />
  </g>
</svg>
