<?xml version="1.0" encoding="UTF-8" standalone="no"?>
<!-- Created with Inkscape (http://www.inkscape.org/) -->

<svg
   xmlns:dc="http://purl.org/dc/elements/1.1/"
   xmlns:cc="http://creativecommons.org/ns#"
   xmlns:rdf="http://www.w3.org/1999/02/22-rdf-syntax-ns#"
   xmlns:svg="http://www.w3.org/2000/svg"
   xmlns="http://www.w3.org/2000/svg"
   xmlns:sodipodi="http://sodipodi.sourceforge.net/DTD/sodipodi-0.dtd"
   xmlns:inkscape="http://www.inkscape.org/namespaces/inkscape"
   width="210mm"
   height="297mm"
   viewBox="0 0 210 297"
   version="1.1"
   id="svg8"
   sodipodi:docname="sb_icon.svg"
   inkscape:version="0.92.4 (5da689c313, 2019-01-14)">
  <defs
     id="defs2">
    <inkscape:perspective
       sodipodi:type="inkscape:persp3d"
       inkscape:vp_x="0 : 148.5 : 1"
       inkscape:vp_y="0 : 1000 : 0"
       inkscape:vp_z="210 : 148.5 : 1"
       inkscape:persp3d-origin="105 : 99 : 1"
       id="perspective3749" />
  </defs>
  <sodipodi:namedview
     id="base"
     pagecolor="#ffffff"
     bordercolor="#666666"
     borderopacity="1.0"
     inkscape:pageopacity="0.0"
     inkscape:pageshadow="2"
     inkscape:zoom="0.7"
     inkscape:cx="282.90445"
     inkscape:cy="603.64908"
     inkscape:document-units="mm"
     inkscape:current-layer="layer1"
     showgrid="false"
     inkscape:window-width="1920"
     inkscape:window-height="1017"
     inkscape:window-x="-8"
     inkscape:window-y="-8"
     inkscape:window-maximized="1" />
  <metadata
     id="metadata5">
    <rdf:RDF>
      <cc:Work
         rdf:about="">
        <dc:format>image/svg+xml</dc:format>
        <dc:type
           rdf:resource="http://purl.org/dc/dcmitype/StillImage" />
        <dc:title></dc:title>
      </cc:Work>
    </rdf:RDF>
  </metadata>
  <g
     inkscape:label="Layer 1"
     inkscape:groupmode="layer"
     id="layer1">
    <path
       sodipodi:type="star"
       id="path3739"
       sodipodi:sides="4"
       sodipodi:cx="84.676178"
       sodipodi:cy="187.79321"
       sodipodi:r1="47.02121"
       sodipodi:r2="33.249016"
       sodipodi:arg1="0.63707033"
       sodipodi:arg2="1.4224685"
       inkscape:flatsided="true"
       inkscape:rounded="0.17"
       inkscape:randomized="0"
       d="m 122.4738,215.76345 c -6.7245,9.08716 -56.680696,16.55188 -65.76786,9.82738 -9.087164,-6.7245 -16.551882,-56.68069 -9.827381,-65.76785 6.724502,-9.08717 56.680691,-16.55189 65.767861,-9.82739 9.08716,6.72451 16.55188,56.6807 9.82738,65.76786 z"
       style="fill:#008080;stroke-width:0.26458332"
       transform="matrix(1.0935847,0,0,1.6644516,45.73872,-143.70663)" />
    <path
       sodipodi:type="star"
       style="fill:#008000;stroke-width:0.26458332"
       id="path3775"
       sodipodi:sides="4"
       sodipodi:cx="9.8273811"
       sodipodi:cy="93.648811"
       sodipodi:r1="52.379372"
       sodipodi:r2="37.037807"
       sodipodi:arg1="1.2170932"
       sodipodi:arg2="2.0024913"
       inkscape:flatsided="true"
       inkscape:rounded="0.17"
       inkscape:randomized="0"
       d="M 27.970237,142.78572 C 16.156924,147.14755 -34.947685,123.60498 -39.309523,111.79167 -43.671361,99.978354 -20.128788,48.873746 -8.3154747,44.511907 3.4978383,40.150069 54.602447,63.692643 58.964285,75.505955 63.326124,87.319268 39.78355,138.42388 27.970237,142.78572 Z"
       inkscape:transform-center-y="1.3475215e-06"
       transform="matrix(0.91629104,0,0,1.3957152,69.992282,33.245317)" />
    <ellipse
       style="fill:#aa8800;stroke-width:0.26458332"
       id="path3777"
       cx="94.872017"
       cy="66.056549"
       rx="30.616072"
       ry="32.88393"
       inkscape:export-xdpi="19.911108"
       inkscape:export-ydpi="19.911108" />
    <circle
       style="fill:#ececec;stroke-width:0.26458332"
       id="path3833"
       cx="80.886909"
       cy="55.851189"
       r="3.7797618" />
    <ellipse
       style="fill:#ececec;stroke-width:0.26458332"
       id="path3835"
       cx="102.80952"
       cy="55.473213"
       rx="3.7797618"
       ry="3.4017856" />
    <path
       style="fill:#000000;stroke-width:0.26458332"
       id="path3847"
       d="m 88.051186,87.381164 c 2.884787,-0.05555 5.779045,0.12284 8.658022,-0.09144 2.841508,-0.189317 5.491232,-1.339623 8.154372,-2.261283 1.21357,-0.359785 2.39961,-0.802222 3.59584,-1.214149 0,0 -0.58842,0.458081 -0.58842,0.458081 v 0 c -1.19514,0.41174 -2.38156,0.84985 -3.59314,1.212199 -2.66639,0.923349 -5.321194,2.067931 -8.167965,2.247223 -2.881892,0.20243 -5.77732,0.02992 -8.664387,0.08941 0,0 0.605678,-0.440049 0.605678,-0.440049 z"
       inkscape:connector-curvature="0" />
    <path
       style="fill:#000000;stroke-width:0.26458332"
       id="path3849"
       d="m 93.31567,64.054595 c -0.01389,2.504559 -0.07375,5.000276 0.212172,7.491211 0.289692,1.562942 0.830006,2.986884 1.661991,4.329687 0.355398,0.771348 0.774483,1.379516 1.548616,1.738887 0,0 -0.626848,0.413834 -0.626848,0.413834 v 0 c -0.773353,-0.384254 -1.212617,-0.990198 -1.569984,-1.775798 -0.837401,-1.35287 -1.38211,-2.786285 -1.674683,-4.360281 -0.286676,-2.493343 -0.226711,-4.990578 -0.218321,-7.497656 0,0 0.667057,-0.339884 0.667057,-0.339884 z"
       inkscape:connector-curvature="0" />
    <ellipse
       style="fill:#aa8800;stroke-width:0.26458332"
       id="path3857"
       cx="23.056549"
       cy="166.22023"
       rx="11.717261"
       ry="12.095239" />
    <path
       style="fill:#000000;stroke-width:0.26458332"
       id="path3863"
       d="m 16.298145,154.05585 c 0.26265,-3.76545 0.822652,-7.50309 1.168397,-11.26274 0.244554,-2.5346 0.876882,-4.9791 2.151765,-7.1859 1.54598,-2.55562 3.653588,-4.66766 5.712781,-6.8011 2.281466,-2.39239 5.021472,-4.22857 7.8656,-5.87347 2.164186,-1.131 4.421915,-1.96616 6.771145,-2.60875 2.795321,-0.80759 5.554785,-1.69779 8.42494,-2.19665 2.534996,-0.59104 5.10953,-0.93155 7.701369,-1.13566 0.344726,-0.0199 0.689449,-0.0399 1.034172,-0.0598 0,0 -0.601509,0.44239 -0.601509,0.44239 v 0 c -0.344186,0.0202 -0.688369,0.0404 -1.032555,0.0605 -2.589763,0.20625 -5.160772,0.5537 -7.694723,1.13946 -2.867557,0.50594 -5.626307,1.39871 -8.421352,2.20275 -2.345571,0.6463 -4.600906,1.48932 -6.759935,2.62409 -2.423662,1.38288 -4.627475,3.15886 -6.603307,5.12041 -2.055224,2.13087 -4.166035,4.23321 -5.714384,6.7823 -1.285418,2.19451 -1.923283,4.6307 -2.171644,7.15953 -0.34619,3.75634 -0.907607,7.49088 -1.165146,11.25345 0,0 -0.665614,0.33915 -0.665614,0.33915 z"
       inkscape:connector-curvature="0" />
    <path
       style="fill:#000000;stroke-width:0.26458332"
       id="path3871"
       d="m 117.45608,94.747431 c 2.25125,1.626232 4.52018,3.237275 6.73005,4.919773 1.21523,1.142936 2.44903,2.264806 3.76058,3.295686 0,0 -0.63471,0.39932 -0.63471,0.39932 v 0 c -1.30807,-1.03402 -2.54202,-2.15392 -3.75587,-3.29719 -2.20949,-1.683286 -4.47616,-3.29794 -6.73208,-4.91783 0,0 0.63203,-0.399759 0.63203,-0.399759 z"
       inkscape:connector-curvature="0" />
    <path
       style="fill:#000000;stroke-width:0.26458332"
       id="path3879"
       d="m 91.271084,100.27185 c -1.026348,1.4784 -2.118683,2.9016 -3.089323,4.41826 0,0 -0.681567,0.29982 -0.681567,0.29982 v 0 c 0.967645,-1.51915 2.062356,-2.94013 3.084097,-4.42212 0,0 0.686793,-0.29596 0.686793,-0.29596 z"
       inkscape:connector-curvature="0" />
    <path
       style="fill:#000000;stroke-width:0.26458332"
       id="path3889"
       d="m 175.57787,128.9529 c 1.29249,1.39057 2.7446,2.71089 3.65818,4.4032 0.50121,0.92844 0.77626,1.86595 1.11922,2.85939 1.44208,5.02098 1.95627,10.25132 2.42482,15.43658 0.18021,3.32808 0.66831,6.67587 0.29204,10.00437 -0.062,1.3734 -0.60857,2.62448 -0.94725,3.93541 -0.32848,1.27155 -0.13291,2.60839 -0.65563,3.82375 -0.0852,0.10678 -0.17031,0.21356 -0.25547,0.32035 0,0 -0.69248,0.29403 -0.69248,0.29403 v 0 c 0.0884,-0.10058 0.17685,-0.20118 0.26527,-0.30177 0.5522,-1.20261 0.33407,-2.54336 0.66133,-3.81252 0.33225,-1.31094 0.89043,-2.55594 0.95444,-3.9276 0.39046,-3.32525 -0.0938,-6.67219 -0.27021,-9.99851 -0.46454,-5.17893 -0.98045,-10.40245 -2.42601,-15.41567 -0.33877,-0.98082 -0.617,-1.92546 -1.11197,-2.84278 -0.91165,-1.68954 -2.36257,-3.00721 -3.65608,-4.392 0,0 0.6398,-0.38623 0.6398,-0.38623 z"
       inkscape:connector-curvature="0" />
    <path
       style="fill:#241c1c;stroke-width:0.26458332"
       id="path3901"
       d="m 101.62934,121.96002 c -0.0132,7.05997 -0.0115,14.11997 -0.0103,21.17995 -0.0781,8.0268 0.15091,16.05299 0.5438,24.06947 0.33787,6.13965 0.67956,12.27945 0.8795,18.4254 0.0784,2.49454 0.1054,4.99017 0.10956,7.48579 0,0 -0.66652,0.33971 -0.66652,0.33971 v 0 c -0.002,-2.49655 -0.0242,-4.99317 -0.0988,-7.48876 -0.19185,-6.1484 -0.5227,-12.29095 -0.86259,-18.43269 -0.39413,-8.01709 -0.62585,-16.04393 -0.54776,-24.07141 0.001,-7.05647 0.003,-14.11295 -0.0103,-21.16942 0,0 0.66344,-0.33804 0.66344,-0.33804 z"
       inkscape:connector-curvature="0" />
    <path
       style="fill:#241c1c;stroke-width:0.26458332"
       id="path3921"
       d="m 123.00804,150.35953 c -3.75637,12.94536 -7.7587,25.81843 -11.38858,38.80061 -3.11073,11.12544 -3.77626,13.96825 -6.58575,24.94536 -2.07894,8.26848 -3.91799,16.5934 -5.84433,24.89787 0,0 -0.628917,0.30252 -0.628917,0.30252 v 0 c 1.947417,-8.31139 3.804447,-16.64397 5.891587,-24.92216 2.82997,-11.03388 3.47018,-13.76349 6.59353,-24.95113 3.61857,-12.96146 7.59677,-25.81795 11.30175,-38.75443 0,0 0.66071,-0.31864 0.66071,-0.31864 z"
       inkscape:connector-curvature="0" />
    <path
       style="fill:#241c1c;stroke-width:0.26458332"
       id="path3923"
       d="m 115.10374,122.42598 c 2.01111,3.13406 3.87638,6.35569 5.23265,9.82909 0.61384,1.88804 0.88017,3.83113 1.538,5.70602 0.43485,1.20975 1.13931,2.28147 1.69574,3.43186 0,0 -0.65206,0.3701 -0.65206,0.3701 v 0 c -0.55667,-1.15338 -1.26223,-2.22779 -1.69868,-3.43988 -0.6579,-1.87509 -0.9275,-3.81563 -1.53198,-5.70648 -1.34816,-3.47165 -3.20689,-6.69249 -5.22758,-9.81523 0,0 0.64391,-0.37548 0.64391,-0.37548 z"
       inkscape:connector-curvature="0" />
    <path
       style="fill:#241c1c;stroke-width:0.26458332"
       id="path3925"
       d="m 99.451426,198.79234 c 0.344993,6.55213 0.416758,13.11131 0.787724,19.66272 0.0508,3.2559 0.50071,6.45728 1.04426,9.65745 0,0 -0.66054,0.35062 -0.66054,0.35062 v 0 c -0.53913,-3.20605 -0.984611,-6.41305 -1.030202,-9.67409 -0.363553,-6.54807 -0.431609,-13.10445 -0.803722,-19.65156 0,0 0.66248,-0.34514 0.66248,-0.34514 z"
       inkscape:connector-curvature="0" />
    <path
       style="fill:#241c1c;stroke-width:0.26458332"
       id="path3951"
       d="m 130.65993,139.32333 c -3.66833,17.61571 -6.97073,35.30571 -10.60575,52.93021 -3.10351,14.56044 -6.97124,28.97534 -11.78937,43.06481 -0.35707,0.87795 -0.71414,1.75591 -1.07122,2.63387 0,0 -0.6632,0.30612 -0.6632,0.30612 v 0 c 0.36069,-0.87812 0.72138,-1.75623 1.08206,-2.63434 4.8582,-14.0882 8.74077,-28.51261 11.8495,-43.08372 3.63348,-17.60921 6.9414,-35.28105 10.53339,-52.89682 0,0 0.66459,-0.32013 0.66459,-0.32013 z"
       inkscape:connector-curvature="0" />
    <path
       style="fill:#241c1c;stroke-width:0.26458332"
       id="path3955"
       d="m 94.193115,230.44331 c 3.342794,0.56295 6.599265,1.50734 9.923885,2.1658 2.06129,0.31421 3.95728,1.17774 5.94302,1.75236 0.26549,0.0519 0.53098,0.1038 0.79647,0.1557 0,0 -0.61416,0.42811 -0.61416,0.42811 v 0 c -0.26689,-0.0536 -0.53377,-0.10721 -0.80065,-0.16082 -1.98039,-0.58116 -3.87564,-1.43586 -5.93319,-1.75123 -3.3247,-0.66347 -6.583147,-1.60813 -9.928824,-2.16246 0,0 0.613449,-0.42746 0.613449,-0.42746 z"
       inkscape:connector-curvature="0" />
    <path
       style="fill:#241c1c;stroke-width:0.26458332"
       id="path3961"
       d="m 112.04595,124.09666 c -2.63223,16.01311 -3.00388,32.30245 -3.5003,48.4917 -0.36342,10.62601 -0.19378,21.25766 0.0693,31.88293 0,0 -9.36615,4.78605 -9.36615,4.78605 v 0 c 0.0136,-10.72295 0.04924,-21.44751 0.394763,-32.16608 0.452027,-16.04692 0.858787,-32.12208 2.458377,-48.10436 0,0 9.94397,-4.89024 9.94397,-4.89024 z"
       inkscape:connector-curvature="0" />
    <path
       style="fill:#241c1c;stroke-width:0.26458332"
       id="path3979"
       d="m 102.91022,225.04904 c 2.18523,0.50811 4.29014,1.31608 6.39598,2.08074 1.30402,0.77858 2.67448,1.25652 4.17223,1.45457 0.79539,0.30236 1.61433,0.50441 2.45026,0.65123 0,0 -9.23815,6.42619 -9.23815,6.42619 v 0 c -0.81269,-0.19446 -1.60733,-0.45028 -2.42368,-0.62811 -1.50743,-0.3294 -2.88063,-0.94706 -4.25437,-1.64094 -2.033764,-0.76165 -4.096625,-1.55888 -6.259353,-1.84425 0,0 9.157083,-6.49943 9.157083,-6.49943 z"
       inkscape:connector-curvature="0" />
    <path
       style="fill:#241c1c;stroke-width:0.26458332"
       id="path3981"
       d="m 99.318486,227.67578 c 0.05548,-2.60457 0.02643,-5.21002 0.02923,-7.815 0.0075,-2.28643 -0.01087,-4.57284 -0.02196,-6.85923 -0.0011,-0.2914 -0.0024,-0.58281 -0.0035,-0.87421 0,0 9.998434,-5.09446 9.998434,-5.09446 v 0 c -0.001,0.29261 -0.002,0.58522 -0.004,0.87783 -0.0111,2.29385 -0.0294,4.58771 -0.022,6.8816 0.003,2.59505 -0.0264,5.19059 0.0292,7.78521 0,0 -10.005882,5.09826 -10.005882,5.09826 z"
       inkscape:connector-curvature="0" />
    <text
       xml:space="preserve"
       style="font-style:normal;font-weight:normal;font-size:25.4px;line-height:1.25;font-family:sans-serif;letter-spacing:0px;word-spacing:0px;fill:#000000;fill-opacity:1;stroke:none;stroke-width:0.26458332;"
       x="65.21376"
       y="154.54535"
       id="text3985"><tspan
         sodipodi:role="line"
         id="tspan3983"
         x="65.21376"
         y="164.20085"
         style="stroke-width:0.26458332;font-size:25.4px;" /></text>
    <text
       xml:space="preserve"
       style="font-style:normal;font-weight:normal;font-size:35.27777863px;line-height:1.25;font-family:sans-serif;letter-spacing:0px;word-spacing:0px;fill:#000000;fill-opacity:1;stroke:none;stroke-width:0.26458332"
       x="64.411957"
       y="169.24516"
       id="text3989"><tspan
         sodipodi:role="line"
         id="tspan3987"
         x="64.411957"
         y="201.43015"
         style="font-size:35.27777863px;stroke-width:0.26458332" /></text>
    <flowRoot
       xml:space="preserve"
       id="flowRoot3991"
       style="font-style:normal;font-weight:normal;font-size:40px;line-height:1.25;font-family:sans-serif;letter-spacing:0px;word-spacing:0px;fill:#000000;fill-opacity:1;stroke:none"
       transform="scale(0.26458333)"><flowRegion
         id="flowRegion3993"><rect
           id="rect3995"
           width="1.0101526"
           height="51.51778"
           x="244.45691"
           y="531.58044" /></flowRegion><flowPara
         id="flowPara3997">ZZ</flowPara></flowRoot>    <text
       xml:space="preserve"
       style="font-style:normal;font-weight:normal;font-size:10.58333302px;line-height:1.25;font-family:'MV Boli';letter-spacing:0px;word-spacing:0px;fill:#000000;fill-opacity:1;stroke:none;stroke-width:0.26458332;-inkscape-font-specification:'MV Boli';font-stretch:normal;font-variant:normal;"
       x="66.55011"
       y="129.15474"
       id="text4001"><tspan
         sodipodi:role="line"
         id="tspan3999"
         x="66.55011"
         y="138.81024"
         style="stroke-width:0.26458332;-inkscape-font-specification:'MV Boli';font-family:'MV Boli';font-weight:normal;font-style:normal;font-stretch:normal;font-variant:normal;" /></text>
    <text
       xml:space="preserve"
       style="font-style:normal;font-weight:normal;font-size:10.58333302px;line-height:1.25;font-family:Forte;letter-spacing:0px;word-spacing:0px;fill:#000000;fill-opacity:1;stroke:none;stroke-width:0.26458332;-inkscape-font-specification:Forte;font-stretch:normal;font-variant:normal;"
       x="68.420998"
       y="127.28384"
       id="text4005"><tspan
         sodipodi:role="line"
         id="tspan4003"
         x="68.420998"
         y="136.93933"
         style="stroke-width:0.26458332;-inkscape-font-specification:Forte;font-family:Forte;font-weight:normal;font-style:normal;font-stretch:normal;font-variant:normal;" /></text>
    <path
       sodipodi:type="spiral"
       style="fill:none;fill-rule:evenodd;stroke:#000000;stroke-width:0.26458332"
       id="path4027"
       sodipodi:cx="104.69941"
       sodipodi:cy="56.985119"
       sodipodi:expansion="1"
       sodipodi:revolution="3"
       sodipodi:radius="1.5584358"
       sodipodi:argument="-15.952942"
       sodipodi:t0="0"
       d="m 104.69941,56.985119 c -0.0758,0.01895 -0.063,-0.09283 -0.0315,-0.125992 0.0852,-0.08986 0.22801,-0.02685 0.28348,0.063 0.0992,0.160716 1.8e-4,0.364015 -0.15749,0.440972 -0.23138,0.112938 -0.50226,-0.02621 -0.59846,-0.251984 -0.12822,-0.300919 0.0524,-0.641347 0.34648,-0.755952 0.37005,-0.14422 0.78085,0.0785 0.91344,0.440972 0.16059,0.438997 -0.10453,0.920588 -0.53546,1.070932 -0.50785,0.177176 -1.06048,-0.130512 -1.22843,-0.62996 -0.1939,-0.576632 0.15647,-1.20046 0.72446,-1.385913 0.64538,-0.210723 1.34051,0.182404 1.5434,0.818949 0.22761,0.714107 -0.20833,1.480618 -0.91344,1.700893 -0.78282,0.244546 -1.62076,-0.234237 -1.85839,-1.007937" />
    <path
       sodipodi:type="spiral"
       style="fill:none;fill-rule:evenodd;stroke:#000000;stroke-width:0.26458332"
       id="path4033"
       sodipodi:cx="82.398804"
       sodipodi:cy="57.74107"
       sodipodi:expansion="1"
       sodipodi:revolution="3"
       sodipodi:radius="1.6903609"
       sodipodi:argument="-20.884001"
       sodipodi:t0="0"
       d="m 82.398804,57.74107 c -0.0379,-0.07581 0.08348,-0.08849 0.125992,-0.063 0.115196,0.06909 0.08208,0.2351 0,0.31498 -0.146821,0.142886 -0.385386,0.08584 -0.503968,-0.063 -0.174024,-0.218418 -0.09042,-0.537971 0.125991,-0.692956 0.288449,-0.206572 0.691405,-0.09541 0.881945,0.188987 0.239774,0.357884 0.100608,0.845253 -0.251983,1.070933 -0.427036,0.273328 -0.999336,0.105932 -1.259921,-0.314979 -0.307091,-0.496029 -0.111335,-1.153564 0.377975,-1.448909 0.564927,-0.340988 1.30789,-0.116791 1.637897,0.44097 0.374974,0.633764 0.122283,1.462286 -0.503967,1.826886 -0.702557,0.409025 -1.616731,0.127802 -2.015873,-0.566963 -0.443124,-0.77132 -0.133342,-1.771213 0.629958,-2.204861" />
    <path
       style="fill:#241c1c;stroke-width:0.26458332"
       id="path4057"
       d="m 105.51669,46.551302 c 1.11222,0.685305 2.25947,1.305732 3.44495,1.85439 0.46899,0.222832 0.91,0.495319 1.36762,0.73972 0,0 -4.693,3.063692 -4.693,3.063692 v 0 c -0.44349,-0.247243 -0.88194,-0.504791 -1.3415,-0.721786 -1.17507,-0.583258 -2.31113,-1.234879 -3.46901,-1.849541 0,0 4.69094,-3.086475 4.69094,-3.086475 z"
       inkscape:connector-curvature="0" />
    <path
       style="fill:#241c1c;stroke-width:0.26458332"
       id="path4067"
       d="m 80.582531,49.032887 c -0.707835,1.070433 -1.274281,2.212398 -1.789917,3.383632 -0.06207,0.137372 -0.124132,0.274746 -0.186195,0.412117 0,0 -5.100156,2.332078 -5.100156,2.332078 v 0 c 0.0635,-0.141055 0.127003,-0.28211 0.190503,-0.423162 0.573947,-1.151514 1.045493,-2.35368 1.750721,-3.439898 0,0 5.135044,-2.264767 5.135044,-2.264767 z"
       inkscape:connector-curvature="0" />
    <path
       style="fill:#241c1c;stroke-width:0.26458332"
       id="path4081"
       d="m 75.194199,40.764893 c 4.130669,-1.185381 8.358952,-1.951725 12.572944,-2.767166 6.10621,-1.299331 12.259157,-2.35826 18.449927,-3.158892 1.78251,-0.212288 3.56828,-0.399862 5.35818,-0.538009 0.88324,-0.06817 1.66781,-0.113731 2.53595,0.0471 0.12557,0.05064 0.27306,0.06479 0.3767,0.151913 0.0949,0.07975 0.28515,0.246496 0.18656,0.321598 -1.55064,1.181307 -3.20211,2.228149 -4.8662,3.243429 -0.0301,0.01834 -1.65942,0.08258 -1.74622,0.08696 -2.82766,-0.01209 -5.64138,0.134083 -8.456836,0.392536 -6.63344,0.59082 -13.121671,2.189633 -19.593758,3.690511 -3.803748,0.840528 -7.586956,1.76158 -11.427983,2.417659 -0.123664,0.0013 -0.270164,0.07521 -0.370989,0.0036 -1.728837,-1.227982 5.13923,-3.849013 6.948837,-4.552389 3.225371,-1.243217 6.381443,-2.661248 9.621628,-3.869357 2.805658,-1.046094 4.838343,-1.681713 7.691758,-2.618862 5.539925,-1.622626 11.089733,-3.253232 16.714393,-4.562509 -0.19199,0.428387 0.88996,-0.48718 1.04865,-0.170579 1.28287,2.559521 -6.15048,3.946038 -8.41749,4.403944 -4.915992,0.814142 -9.822652,1.680999 -14.711488,2.646045 -2.310546,0.509569 -4.648843,1.067993 -6.833547,1.998009 -0.08554,0.06042 -0.340694,0.243705 -0.256628,0.181253 1.548689,-1.150493 3.102237,-2.29443 4.650552,-3.44542 0.09903,-0.07361 0.183312,-0.168759 0.291373,-0.228328 0.545674,-0.300796 1.168955,-0.505994 1.737722,-0.814141 2.331456,-1.28437 4.720757,-2.412727 7.197596,-3.388931 1.533236,-0.576665 3.110314,-1.014133 4.687935,-1.446938 0.336727,-0.09238 0.671576,-0.191614 1.009097,-0.281043 0.151394,-0.04011 0.337865,-0.208717 0.457388,-0.107508 0.19281,0.163261 0.17167,0.475231 0.2575,0.712846 -0.23586,0.193831 -0.456372,0.408014 -0.707578,0.581493 -0.428175,0.295696 -0.886563,0.545102 -1.326398,0.823158 -1.391468,0.879663 -3.334475,2.130481 -4.636987,3.032551 -2.658804,1.841389 -3.629996,2.628482 -6.255687,4.62525 -4.706916,3.746855 -9.549148,7.315959 -14.36901,10.914306 -0.27274,0.204563 -0.546997,0.407122 -0.818224,0.613688 -0.188254,0.143372 -0.943488,0.900771 -0.655301,-0.245261 0.03362,-0.13371 0.232928,-0.147582 0.349393,-0.221374 -1.419125,0.808963 -2.838252,1.617927 -4.257376,2.42689 14.795745,-8.469672 1.702617,-0.97396 1.630396,-0.934751 -0.347599,0.188719 0.669415,-0.422236 0.99186,-0.651299 1.431367,-1.01683 2.745065,-2.1957 4.089413,-3.321708 3.25755,-2.760081 6.451026,-5.595205 9.586325,-8.493199 1.029401,-0.947833 2.080517,-1.875145 3.07272,-2.862784 0.11639,-0.115856 0.201882,-0.266584 0.33804,-0.358402 0.02989,-0.02016 0.06117,0.05249 0.06215,0.08853 0.0054,0.198252 -0.02911,0.395581 -0.04366,0.593373 -1.87425,0.695221 -8.184049,4.381399 -0.816668,0.15051 -3.713969,2.197902 -7.312483,4.581885 -10.978898,6.857125 -1.371381,0.879424 -2.779768,1.698678 -4.160777,2.562497 -0.310901,0.194469 -0.724749,0.52705 -1.086273,0.67781 -0.103495,-0.235987 -0.272489,-0.453094 -0.310484,-0.707959 -0.0104,-0.06981 0.129622,-0.05639 0.191469,-0.09039 0.214622,-0.117997 0.878663,-0.4312 0.667475,-0.307163 -6.704923,3.937963 -5.666211,3.291697 -4.034269,2.262965 1.133935,-0.730094 2.205892,-1.54087 3.220818,-2.427623 1.435058,-1.244198 2.627341,-2.746862 4.083174,-3.96697 1.670984,-0.600733 3.298071,-1.341501 5.012952,-1.802201 0.18827,-0.05058 -0.158414,0.357262 -0.258061,0.524812 -0.450795,0.758002 -1.091197,1.43515 -1.66129,2.102728 -1.689611,2.123805 -3.571634,4.074639 -5.463347,6.017056 -0.641614,0.724898 -1.37388,1.381498 -1.95031,2.164223 -0.06782,0.0921 -0.117072,0.196525 -0.175934,0.294592 -0.0091,0.01521 -0.0288,0.06292 -0.02802,0.04521 0.0037,-0.08351 0.02463,-0.165343 0.03695,-0.248015 1.141894,-0.575289 2.379136,-0.93617 3.540067,-1.479888 1.73899,-0.86382 4.766609,-2.550584 -3.063814,1.801706 -0.205687,0.114324 0.392435,-0.260022 0.583589,-0.397274 0.235812,-0.169326 0.920903,-0.702736 1.145749,-0.8767 0.179858,-0.05293 1.547346,-1.298964 1.637421,-1.285232 0.235844,0.03595 0.03598,0.30707 0.0095,0.355121 -0.769157,0.263115 -1.562524,0.456928 -2.333903,0.718053 -0.565864,0.125611 -1.45269,0.904647 -2.03159,0.780349 -0.09344,-0.02006 -0.165552,-0.09553 -0.24833,-0.143293 -0.06874,-0.140351 -0.172839,-0.26838 -0.206235,-0.421053 -0.144295,-0.659627 0.661019,-1.658876 1.014071,-2.164003 0.863405,-1.043747 1.790182,-2.036826 2.754974,-2.987421 1.735402,-1.588331 3.831498,-2.471954 5.974998,-3.601439 0.340337,-0.179335 0.700765,0.293356 0.859174,0.490759 0.390043,0.895385 -0.201483,1.665126 -0.754232,2.33276 -0.626763,0.693952 -1.417455,1.206029 -2.099572,1.838452 0.128479,-0.19816 -0.170476,0.267438 -0.212696,0.183788 -0.04553,-0.09021 -0.09441,-0.19729 -0.06919,-0.295141 0.01984,-0.07696 0.688345,-0.356668 0.7453,-0.388908 -1.498272,0.849985 -2.990715,1.710328 -4.494816,2.549954 -0.13203,0.0737 0.25373,-0.164672 0.377484,-0.251556 0.396375,-0.278283 0.765111,-0.608523 1.186405,-0.850294 1.730763,-0.993248 3.472113,-1.967931 5.208172,-2.951895 0.61936,-0.391253 1.316773,-0.661786 2.054748,-0.580411 0.713981,0.521806 0.45401,0.928542 -0.115691,1.341228 -0.208005,0.172405 -0.189921,-0.07708 -0.101682,-0.195106 0.05767,-0.07713 0.153127,-0.116832 0.229692,-0.175247 -1.455253,0.820277 -2.910506,1.640554 -4.365759,2.460829 2.720448,-1.717445 5.160388,-3.818983 7.609215,-5.892401 2.114486,-1.697617 4.186603,-3.456556 6.347793,-5.095263 2.029881,-1.356434 1.81587,-1.233289 5.753415,-3.277952 0.416788,-0.216429 0.806731,0.356856 0.81099,0.682032 0.0021,0.155467 -0.100372,0.294315 -0.150558,0.441471 -2.650644,2.183108 -6.054291,3.821406 -9.370092,4.871418 -1.824662,0.544846 -3.605077,1.21844 -5.454015,1.679485 -0.879469,0.230738 -1.786136,0.265126 -2.686304,0.340831 -1.542947,-1.809041 5.088612,-3.659505 6.963434,-4.40196 1.170114,-0.49652 2.436093,-0.710949 3.625363,-1.1365 0.18692,-0.07056 1.466038,-0.511426 1.556155,-0.229571 0.07275,0.227537 0.07776,0.471395 0.116634,0.707091 -1.764687,0.991487 -3.500581,2.036059 -5.294059,2.974459 -0.165849,0.08678 -1.58396,0.354431 -1.676003,0.370248 -1.031515,0.177255 -2.072402,0.277474 -3.113328,0.378365 -1.270151,0.216812 -2.593941,0.01659 -3.855874,0.252441 -0.499115,0.108432 -0.217466,0.01045 -0.625631,0.228267 -0.08592,0.04585 -0.345389,0.179919 -0.260908,0.131471 10.550297,-6.050171 5.335468,-3.539405 4.227084,-2.291156 -0.376415,0.481483 -0.733581,0.949293 -1.216684,1.329896 -1.037032,0.815475 -1.967928,1.755018 -2.813206,2.765599 -0.07885,0.109713 -0.157694,0.219422 -0.236543,0.329134 0,0 -5.137597,2.256827 -5.137597,2.256827 v 0 c 0.07772,-0.132749 0.155443,-0.265501 0.233164,-0.398251 0.83692,-1.030829 1.744308,-1.992394 2.735138,-2.876166 0.489003,-0.352314 0.969849,-0.660733 1.24287,-1.221126 0.0586,-0.06548 0.124923,-0.124786 0.175797,-0.196429 0.05843,-0.08228 0.06427,-0.210053 0.150297,-0.262806 1.923052,-1.179219 3.743917,-2.861463 6.028007,-3.148171 1.266047,-0.06933 2.537436,-0.05345 3.799493,-0.197863 1.032343,-0.107569 2.062591,-0.218051 3.079221,-0.435441 2.159196,-0.461706 5.287494,-2.326074 -2.692249,2.068595 0.161287,0.153117 0.333626,0.295378 0.483867,0.459348 0.05101,0.05567 -0.133284,0.0742 -0.206235,0.09367 -0.380685,0.101563 -0.755205,0.222287 -1.130292,0.34262 -1.211394,0.33284 -2.414579,0.688202 -3.586236,1.146447 -0.592326,0.215466 -1.190882,0.411464 -1.772563,0.654799 -0.141745,0.0593 -0.545071,0.276915 -0.422521,0.184237 4.243665,-3.209269 5.184725,-1.593556 4.169182,-3.224614 0.865577,-0.03433 1.723824,-0.169101 2.563517,-0.381469 1.821293,-0.485246 3.593158,-1.131308 5.394814,-1.682779 0.956175,-0.335722 1.892234,-0.693229 2.809317,-1.126723 0.252126,-0.119176 0.986313,-0.519559 0.748122,-0.374517 -1.234223,0.751567 -5.832787,3.449089 -3.736467,2.198235 0.131331,-0.02601 0.361717,-0.142338 0.468744,0.03919 0.0013,0.0021 -0.560044,0.265169 -0.343802,0.135475 2.516391,-1.50921 6.107631,-3.548293 3.818244,-2.246368 -0.850469,0.594871 -1.633471,1.251807 -2.446856,1.895909 -1.354394,1.07252 -2.754614,2.088163 -4.061296,3.220593 -2.410817,2.036617 -4.781179,4.127079 -7.400978,5.898917 -1.762053,1.009097 -3.502501,2.056892 -5.286158,3.027294 -0.350827,0.190865 -0.695515,-0.120449 -0.853334,-0.401077 -0.158091,-0.281114 -0.111244,-0.296934 -0.06333,-0.576927 0.04249,-0.04355 0.48696,-0.416776 0.539102,-0.416739 0.07974,5.2e-5 0.140528,0.07666 0.204094,0.124804 0.04517,0.03421 0.103248,0.06638 0.119832,0.120562 0.0078,0.02532 -0.04956,0.01871 -0.07435,0.02806 -0.68321,0.124208 -1.286211,0.432072 -1.892567,0.761119 1.469205,-0.855293 2.940875,-1.706364 4.407612,-2.565882 0.134667,-0.07892 -0.278136,0.142409 -0.411216,0.22397 -0.397653,0.243702 -0.421423,0.299162 -0.788067,0.586862 -1.683805,1.32126 -3.599455,2.141643 -5.509328,3.243553 -0.638067,0.195326 -1.758799,0.225658 -1.234924,-0.803452 0.573693,-0.757272 1.443079,-1.192358 2.113936,-1.85614 0.437584,-0.413221 0.988012,-0.951235 1.099759,-1.568973 -0.124452,-0.08118 -0.567201,0.150603 -0.439444,0.07474 8.08445,-4.800542 5.176017,-3.205337 3.591377,-2.016882 -0.976569,0.918075 -1.888902,1.896004 -2.774153,2.90163 -0.312671,0.377804 -0.625877,0.785722 -0.876734,1.208241 -0.06593,0.111053 -0.08443,0.248488 -0.161266,0.352298 -0.130159,0.175844 -0.164254,0.107315 -0.267518,0.03212 0.600054,-0.416459 1.410047,-0.547208 2.062528,-0.860451 0.824598,-0.238512 1.677307,-0.616053 2.547805,-0.487805 0.239686,0.176237 0.547082,0.315725 0.549288,0.685803 0.0013,0.208629 -1.483582,1.197184 -1.666359,1.377995 -0.556186,0.426371 -1.09932,0.957649 -1.700331,1.318903 -2.102983,1.264057 -4.228703,2.676938 -6.505329,3.679661 -0.697691,0.296254 -1.402551,0.563673 -2.112198,0.829855 -0.254881,0.0956 -0.93857,0.370565 -1.238144,0.41837 -0.148588,0.02371 -0.300919,-0.0032 -0.451379,-0.0048 -0.131898,-0.111512 -0.295469,-0.193871 -0.395693,-0.33454 -0.548965,-0.77049 1.745271,-2.563328 2.091987,-3.048904 1.878943,-1.903712 3.766581,-3.805344 5.379172,-5.944566 0.448389,-0.511254 0.875292,-1.033632 1.304745,-1.560507 0.122076,-0.14977 0.251658,-0.293389 0.371808,-0.444712 0.103799,-0.130728 0.153215,-0.321246 0.299786,-0.401124 1.728486,-0.942004 3.521409,-1.76063 5.282113,-2.640947 -1.603862,0.913051 -2.752778,2.751577 -4.170714,3.924605 -0.98003,0.913069 -2.011114,1.745691 -3.128061,2.48699 -2.032076,1.34407 -0.589653,0.401622 -5.595466,3.251214 -0.04984,0.02837 -0.889246,0.423529 -0.908857,0.407439 -0.206108,-0.169105 -0.31192,-0.432456 -0.467879,-0.648684 0.244766,-0.331951 0.878809,-0.632021 1.190329,-0.825373 1.422749,-0.883063 2.88267,-1.704353 4.291177,-2.610763 3.646998,-2.244788 7.212991,-4.616177 10.876443,-6.83415 3.377277,-1.946928 6.721232,-4.074073 10.339486,-5.576054 0.222853,0.10682 0.481147,0.159364 0.668554,0.320458 0.297619,0.255839 -0.255529,0.65037 -0.324424,0.718082 -1.029949,1.012282 -2.142776,1.941118 -3.201384,2.92209 -3.137075,2.894028 -6.322994,5.734333 -9.563698,8.512008 -0.490985,0.411798 -0.985499,0.819423 -1.472951,1.235395 -1.113274,0.950024 -2.197947,2.015162 -3.46297,2.772042 -1.858841,1.112169 -3.744685,2.178574 -5.618435,3.26544 -1.346645,0.781122 2.691416,-1.565468 4.037123,-2.348203 -1.781061,1.025467 -3.548268,2.075381 -5.343186,3.076395 -0.682146,0.380428 -1.204169,-0.275873 -0.906872,-0.63065 0.360235,-0.429885 1.03973,-0.529199 1.353526,-0.999557 4.942911,-3.607786 9.906823,-7.18943 14.676921,-11.026679 2.834434,-2.186099 5.670119,-4.323953 8.643258,-6.318438 0.647906,-0.434636 2.337146,-1.563127 3.160614,-2.038633 0.227227,-0.131212 0.469617,-0.234209 0.704427,-0.351311 0.151157,0.143999 0.423251,0.22543 0.453469,0.432001 0.01865,0.12759 -0.25355,0.04781 -0.378788,0.07851 -0.323784,0.07938 -0.645961,0.165235 -0.967938,0.251651 -1.555102,0.41737 -3.099496,0.876332 -4.601668,1.460455 -2.500336,1.029684 -4.905777,2.230485 -7.281672,3.519583 -0.577564,0.28063 -1.18447,0.615749 -1.797891,0.815096 -0.140769,0.04574 -0.547367,0.183285 -0.435581,0.08627 3.748696,-3.253484 2.608744,-2.785645 4.558493,-3.531177 2.196595,-0.756089 4.435687,-1.385956 6.725703,-1.791338 4.906433,-0.912836 9.826273,-1.7522 14.729893,-2.678208 0.61616,-0.146124 1.23603,-0.277444 1.8485,-0.438372 0.41672,-0.109495 1.58537,-0.627086 1.23773,-0.372546 -1.29563,0.948661 -2.89932,1.450549 -4.12574,2.487144 -1.06377,0.89912 1.17812,0.384839 0.42303,0.543404 -0.23021,0.04838 -0.46042,0.09675 -0.69062,0.145129 -5.527923,1.195827 -10.975884,2.756006 -16.390563,4.379275 -3.194058,1.063852 -4.602367,1.493435 -7.733448,2.691394 -3.326075,1.272564 -6.567726,2.75167 -9.874001,4.071932 -0.360882,0.153237 -0.723654,0.302096 -1.082646,0.459709 -2.567504,1.127241 -2.166234,1.748337 3.241667,-2.365201 0.09707,-0.07384 -0.258575,-0.157847 -0.23784,-0.278032 0.01648,-0.0955 0.19321,-0.01545 0.289812,-0.02318 3.745963,-0.526603 7.416003,-1.45641 11.115444,-2.229459 6.531867,-1.491025 13.074859,-3.07572 19.756755,-3.726293 2.87581,-0.28388 5.75135,-0.438137 8.63944,-0.510363 0.31154,-0.02788 0.94028,-0.06903 1.2611,-0.151662 0.13627,-0.0351 0.506,-0.240284 0.39096,-0.159247 -1.47244,1.037206 -3.00485,1.987891 -4.47134,3.033508 -0.10058,0.07172 0.79213,0.281334 -0.19528,7.94e-4 -0.80069,-0.09611 -1.56576,-0.05884 -2.37212,-0.0078 -1.74294,0.110331 -3.48259,0.269253 -5.21779,0.466738 -6.165036,0.763953 -12.287206,1.821921 -18.359356,3.136254 -4.307398,0.864857 -8.642631,1.674604 -12.825058,3.047373 0,0 4.431718,-3.442983 4.431718,-3.442983 z"
       inkscape:connector-curvature="0" />
    <path
       style="fill:#241c1c;stroke-width:0.26458332"
       id="path4083"
       d="m 99.81808,36.814098 c 0.78847,-0.0094 1.61356,0.08318 2.38613,-0.132673 0.11896,-0.03324 0.44569,-0.212166 0.33849,-0.150804 -1.55538,0.890325 -3.123029,1.759034 -4.684542,2.638552 0.02798,0.03751 0.242668,0.249899 0.05617,0.323016 -0.108797,0.04266 -0.232945,-0.019 -0.349427,-0.02837 -0.167519,-0.01349 -0.334595,-0.04556 -0.502574,-0.04028 -0.546976,0.0172 -1.378199,0.189399 -1.871856,0.276079 -3.434556,0.658331 -6.919997,1.004192 -10.399934,1.319549 -0.17463,-0.334193 -1.844548,0.58842 -1.975789,-0.07749 -0.04478,-0.227187 -0.137824,-0.563179 0.05422,-0.692555 3.756231,-2.530467 3.696123,-2.452666 6.205302,-3.23352 2.098622,-0.619064 4.183139,-1.282383 6.266275,-1.951368 1.587002,-0.379087 3.091918,-1.008552 4.675615,-1.397747 2.3476,-0.389038 4.02923,-2.723001 -3.42865,2.279092 0.16392,0.448694 0.271695,0.344721 -0.04935,0.44654 -1.230506,-0.01394 -2.468308,0.176258 -3.681291,0.38 -2.708253,0.642445 -5.41546,1.269643 -8.157747,1.751039 -0.831442,0.0672 -1.648232,0.313788 -2.47818,0.389983 -0.374872,0.03441 -0.53382,-0.08438 -0.480682,-0.12236 1.63172,-1.16614 3.332107,-2.233078 4.99816,-3.349617 2.639747,-0.465561 5.263604,-1.031811 7.908782,-1.480701 2.503207,-0.371218 4.988223,-1.048747 7.525238,-1.151329 0.96411,-0.04438 1.53408,0.127739 2.32194,0.627378 0.62376,0.2794 1.02897,0.855212 1.48139,1.341347 0.48578,0.712245 1.15161,1.23263 1.79473,1.787054 0.4877,0.380392 0.98279,0.765064 1.41538,1.208786 1.39618,1.679337 -3.43763,3.829116 -5.23574,2.902778 -0.53749,-0.276899 -1.05349,-0.612793 -1.56614,-0.93191 -0.96255,-0.582038 -1.98991,-1.041408 -2.956958,-1.61494 -1.904547,-1.62256 3.995178,-2.95639 4.737398,-3.344899 0.0954,-0.04992 0.96806,0.396856 1.05496,0.449834 0.61931,0.230301 1.11942,0.700616 1.71274,0.973714 0.26361,0.121333 0.9701,0.31156 1.20373,0.379074 2.254,0.450482 4.51996,0.836255 6.78204,1.243576 0.83546,0.30608 2.03935,0.09002 2.82828,0.526584 0,0 -4.70498,3.135421 -4.70498,3.135421 v 0 c -0.88498,-0.136406 -1.75448,-0.399052 -2.64673,-0.500425 -2.28344,-0.434554 -4.58237,-0.787185 -6.85716,-1.263925 -1.14691,-0.353139 -1.96862,-0.863571 -3.01509,-1.4151 -0.36332,-0.151291 -0.29021,-0.136432 -0.688833,-0.235048 -0.09215,-0.02281 -0.35547,-0.0024 -0.278767,-0.05831 6.53326,-4.764307 3.49264,-3.792845 4.59117,-2.943357 0.9555,0.581665 1.97366,1.049951 2.92506,1.639048 0.45334,0.268695 0.64195,0.391449 1.10751,0.625563 2.22118,1.116946 2.31392,-0.642589 -3.78152,3.415863 -0.0129,0.0086 -0.0152,-0.02691 -0.0229,-0.04037 -0.42495,-0.427416 -0.90365,-0.79974 -1.36949,-1.180674 -0.66174,-0.56342 -1.30337,-1.138714 -1.8252,-1.840865 -0.42965,-0.456734 -0.832,-0.937572 -1.416842,-1.20377 -0.64003,-0.378568 -1.347041,-0.419446 -2.081816,-0.382055 -2.47805,0.167658 -4.915032,0.720457 -7.362735,1.111787 -2.697702,0.480962 -5.370128,1.077579 -8.058782,1.602695 1.390857,-1.065012 2.787666,-2.122295 4.172569,-3.195037 0.01302,-0.01008 -0.0024,-0.04324 0.01357,-0.04754 0.847593,-0.228788 1.801011,-0.096 2.643553,-0.365511 2.75813,-0.483412 5.468654,-1.162233 8.199474,-1.774333 1.26995,-0.201742 2.584773,-0.439909 3.870209,-0.268391 2.81348,1.311008 -3.464999,3.497033 -5.57748,3.89046 -1.550133,0.421979 -3.05525,0.992537 -4.613667,1.388184 -2.093256,0.657596 -4.187536,1.311701 -6.279459,1.973123 -2.67167,0.962681 0.800904,-0.230749 3.416551,-2.225943 0.172699,-0.131733 -0.761793,-0.332338 -0.545864,-0.355854 0.542054,-0.05903 1.097711,0.09949 1.63381,-0.0802 3.488507,-0.283901 6.974461,-0.657665 10.404321,-1.375627 0.893178,-0.137364 2.728298,-0.630495 3.398238,0.342921 0.0708,0.102854 0.0722,0.23904 0.10837,0.35856 -4.937398,2.835971 -3.868844,3.032303 -7.827812,3.025677 0,0 4.542576,-3.300375 4.542576,-3.300375 z"
       inkscape:connector-curvature="0" />
    <text
       xml:space="preserve"
       style="font-style:normal;font-variant:normal;font-weight:normal;font-stretch:normal;font-size:30.59842682px;line-height:1.25;font-family:'Bell MT';-inkscape-font-specification:'Bell MT';letter-spacing:0px;word-spacing:0px;fill:#000000;fill-opacity:1;stroke:none;stroke-width:0.76496059;"
       x="62.61422"
       y="22.45348"
       id="text4087"
       transform="scale(0.778101,1.2851802)"><tspan
         sodipodi:role="line"
         id="tspan4085"
         x="62.61422"
         y="22.45348"
         style="font-style:normal;font-variant:normal;font-weight:normal;font-stretch:normal;font-family:Mistral;-inkscape-font-specification:Mistral;stroke-width:0.76496059;fill:#000000;">STUDY BUDDY</tspan></text>
    <path
       style="fill:#ffcc00;stroke-width:0.26458332"
       id="path4093"
       d="m 95.302513,99.994729 c 1.643248,1.419581 3.458107,2.624761 5.238677,3.862681 1.25225,0.87564 2.58887,1.62238 3.84012,2.49916 0.54943,0.51022 1.12666,0.97595 1.70124,1.45193 0.43262,0.48154 0.86969,0.90566 1.43923,1.22315 0.42423,0.31283 0.89121,0.55942 1.354,0.80988 0,0 -4.71816,3.07081 -4.71816,3.07081 v 0 c -0.45782,-0.26818 -0.92828,-0.51492 -1.35831,-0.82779 -0.56056,-0.36354 -1.02159,-0.80932 -1.48566,-1.28428 -0.57541,-0.45363 -1.08805,-0.96991 -1.654336,-1.43521 -1.242859,-0.86824 -2.529109,-1.67258 -3.768534,-2.5458 -1.793534,-1.27137 -3.62031,-2.4991 -5.351986,-3.85478 0,0 4.763719,-2.969751 4.763719,-2.969751 z"
       inkscape:connector-curvature="0" />
    <path
       style="fill:#ffcc00;stroke-width:0.26458332"
       id="path4095"
       d="m 109.23033,108.86826 c 1.46235,-0.46416 2.95264,-0.83652 4.40869,-1.32191 1.28977,-0.43938 2.63629,-0.67038 3.95439,-1.0051 1.05199,-0.2855 2.12655,-0.45331 3.2123,-0.53024 1.21504,-0.22535 2.40109,-0.57787 3.61163,-0.82503 0.2153,-0.0372 0.4306,-0.0744 0.6459,-0.11164 0,0 -4.45592,3.36265 -4.45592,3.36265 v 0 c -0.21042,0.0409 -0.42084,0.0818 -0.63127,0.12275 -1.2223,0.27998 -2.43331,0.64074 -3.6811,0.78796 -1.05973,0.10749 -2.10453,0.30746 -3.13457,0.58017 -1.31396,0.31104 -2.63962,0.58679 -3.91853,1.02701 -1.48605,0.45992 -2.9836,0.88772 -4.47978,1.31148 0,0 4.46826,-3.3981 4.46826,-3.3981 z"
       inkscape:connector-curvature="0" />
    <path
       style="fill:#ffcc00;stroke-width:0.26458332"
       id="path4097"
       d="m 101.7616,99.60254 c 1.08358,0.90535 2.33723,1.57651 3.45245,2.43911 0.72349,0.56327 1.5,1.0478 2.22015,1.61545 0.67665,0.43145 1.30417,0.95179 2.02657,1.30546 0.61435,0.28324 1.05563,0.81716 1.6391,1.14364 0.51018,0.30552 0.98988,0.6529 1.48791,0.97634 0,0 -4.73546,3.03166 -4.73546,3.03166 v 0 c -0.48643,-0.33327 -0.97957,-0.65527 -1.48464,-0.95983 -0.53872,-0.37073 -1.01246,-0.8384 -1.61312,-1.11636 -0.71551,-0.41933 -1.38581,-0.91493 -2.06501,-1.38976 -0.72762,-0.55157 -1.49921,-1.04232 -2.20469,-1.62379 -1.118762,-0.85717 -2.338576,-1.57434 -3.463534,-2.42374 0,0 4.740274,-2.99818 4.740274,-2.99818 z"
       inkscape:connector-curvature="0" />
    <path
       style="fill:#ffcc00;stroke-width:0.26458332"
       id="path4107"
       d="m 105.88585,99.994729 c 1.26737,1.154831 2.62171,2.210341 4.01244,3.211661 1.11841,0.74224 2.26776,1.44595 3.44963,2.08373 0.75062,0.41229 1.45791,0.89192 2.17681,1.35463 0,0 -4.72534,3.02862 -4.72534,3.02862 v 0 c -0.69442,-0.46979 -1.39863,-0.92493 -2.13526,-1.32685 -1.1871,-0.66095 -2.33658,-1.39497 -3.45473,-2.16579 -1.39442,-1.03085 -2.74769,-2.11532 -4.08727,-3.21625 0,0 4.76372,-2.969751 4.76372,-2.969751 z"
       inkscape:connector-curvature="0" />
    <path
       style="fill:#ffcc00;stroke-width:0.26458332"
       id="path4109"
       d="m 110.42156,99.238778 c 0.79446,0.848662 1.68461,1.585822 2.5794,2.321272 0.55004,0.61956 1.21274,1.1142 1.85207,1.6346 0.67033,0.41056 1.20333,1.01402 1.88732,1.39892 0.51545,0.33809 0.83811,0.87516 1.26867,1.3007 0.27432,0.31882 0.13286,0.17361 0.42079,0.43911 0,0 -4.79388,2.94942 -4.79388,2.94942 v 0 c -0.30207,-0.30314 -0.15926,-0.15104 -0.42971,-0.45508 -0.38408,-0.4094 -0.71037,-0.88632 -1.19528,-1.18755 -0.66084,-0.453 -1.24089,-1.01481 -1.90459,-1.46599 -0.64786,-0.5156 -1.30413,-1.01987 -1.85917,-1.63932 -0.89239,-0.74465 -1.73373,-1.53946 -2.58934,-2.32633 0,0 4.76372,-2.969752 4.76372,-2.969752 z"
       inkscape:connector-curvature="0" />
    <path
       style="fill:#ffcc00;stroke-width:0.26458332"
       id="path4111"
       d="m 116.11332,99.914304 c 1.22225,0.838966 2.43015,1.707956 3.72376,2.434996 0.6947,0.56998 1.48768,1.00916 2.16076,1.60389 0.47428,0.29652 0.80571,0.74675 1.21069,1.12077 0,0 -4.78665,2.94962 -4.78665,2.94962 v 0 c -0.38796,-0.37916 -0.74952,-0.78251 -1.19838,-1.09398 -0.66313,-0.5484 -1.38296,-1.02489 -2.06914,-1.54327 -1.27502,-0.77572 -2.48619,-1.65167 -3.75857,-2.43184 0,0 4.71753,-3.040186 4.71753,-3.040186 z"
       inkscape:connector-curvature="0" />
    <path
       style="fill:#ffcc00;stroke-width:0.26458332"
       id="path4113"
       d="m 118.33637,98.942759 c 0.79549,0.918258 1.57467,1.844631 2.47532,2.664411 0.58773,0.52035 1.24833,0.94754 1.86777,1.42888 0.30999,0.27956 0.66051,0.50737 0.99763,0.75185 0,0 -4.73767,3.00814 -4.73767,3.00814 v 0 c -0.34181,-0.2464 -0.68535,-0.49109 -1.00994,-0.76025 -0.6423,-0.47809 -1.30182,-0.9384 -1.88727,-1.48695 -0.88366,-0.86333 -1.66599,-1.81492 -2.5146,-2.70982 0,0 4.80876,-2.896261 4.80876,-2.896261 z"
       inkscape:connector-curvature="0" />
    <path
       style="fill:#ffcc00;stroke-width:0.26458332"
       id="path4115"
       d="m 116.44648,97.430853 c 0.87047,0.901372 1.65482,1.879831 2.48669,2.814847 0.46517,0.58785 0.99674,1.11461 1.47554,1.69059 0.38519,0.47994 0.93706,0.75137 1.34556,1.20058 0.28766,0.44572 0.62981,0.82248 0.99161,1.20586 0,0 -4.80717,2.92898 -4.80717,2.92898 v 0 c -0.36339,-0.37971 -0.68052,-0.78174 -0.99249,-1.20264 -0.43828,-0.42634 -0.98151,-0.74059 -1.35995,-1.23503 -0.48076,-0.567 -0.99216,-1.10747 -1.44529,-1.69767 -0.81171,-0.95599 -1.60242,-1.93316 -2.50325,-2.80925 0,0 4.80875,-2.896267 4.80875,-2.896267 z"
       inkscape:connector-curvature="0" />
    <path
       style="fill:#aa4400;stroke-width:0.26458332"
       id="path4123"
       d="m 1.6725317,188.00993 c 2.9376601,0.0493 5.8759257,0.0496 8.8139183,0.0468 2.331336,0.0328 4.653365,-0.006 6.974124,-0.22834 1.264921,-0.25227 2.531722,-0.48924 3.795834,-0.74426 1.608465,-0.27875 3.198689,-0.6342 4.82034,-0.8326 1.407552,-0.18537 2.824099,0.0272 4.232582,0.11565 1.32801,0.15901 2.659946,0.38425 3.942797,0.76797 0.607899,0.18473 0.310632,0.0997 0.891363,0.25661 0,0 -4.628245,3.17114 -4.628245,3.17114 v 0 c -0.576395,-0.17093 -0.283049,-0.0832 -0.879996,-0.26324 -1.260714,-0.33142 -2.543197,-0.58964 -3.844443,-0.69334 -1.393464,-0.0902 -2.795534,-0.23613 -4.185145,-0.018 -1.606553,0.2177 -3.190182,0.5616 -4.784091,0.85435 -1.27442,0.25552 -2.54543,0.54583 -3.837789,0.69609 -2.29672,0.16664 -4.594644,0.14 -6.8962911,0.11399 -2.9809509,-0.003 -5.96214673,-0.002 -8.9427795,0.0468 0,0 4.5278213,-3.28965 4.5278213,-3.28965 z"
       inkscape:connector-curvature="0" />
    <path
       style="fill:#c87137;stroke-width:0.26458332"
       id="path4125"
       d="m 187.94548,194.87793 c 2.19581,0.38 4.42388,0.54016 6.64161,0.74128 2.45017,0.29884 4.90887,0.5139 7.37346,0.64546 1.01347,0.0443 2.07861,0.0157 3.03295,0.40668 0.79723,0.22736 1.52488,0.61611 2.2706,0.972 0.81303,0.27837 1.54011,0.74324 2.32986,1.06976 0.10605,0.0317 0.2121,0.0634 0.31815,0.0951 0,0 -4.6571,3.15024 -4.6571,3.15024 v 0 c -0.11462,-0.0453 -0.22923,-0.0906 -0.34384,-0.13596 -0.77091,-0.37151 -1.52668,-0.77307 -2.32268,-1.09203 -0.73223,-0.35373 -1.47525,-0.66286 -2.253,-0.90307 -0.9442,-0.2437 -1.91571,-0.27929 -2.88557,-0.32933 -2.44727,-0.18253 -4.88858,-0.42962 -7.3281,-0.69551 -2.25127,-0.20127 -4.50455,-0.38106 -6.74638,-0.67339 0,0 4.57004,-3.25123 4.57004,-3.25123 z"
       inkscape:connector-curvature="0" />
    <path
       style="fill:#803300;stroke-width:0.26458332"
       id="path4135"
       d="m 13.343532,191.72779 c 2.489522,0.14888 4.985764,0.12385 7.478585,0.1169 2.312558,0.002 4.569152,0.54183 6.849968,0.84995 0.748917,0.25522 1.569257,0.28111 2.32519,0.49494 0.26176,0.074 0.504346,0.20432 0.759735,0.29801 0.533146,0.38383 1.122866,0.61164 1.603031,1.06626 0.555816,0.26053 1.040289,0.63209 1.476233,1.0709 0.08484,0.0936 0.169669,0.18719 0.254505,0.28079 0,0 -13.755411,8.41502 -13.755411,8.41502 v 0 c -0.07018,-0.0638 -0.140371,-0.12758 -0.210557,-0.19137 -0.4693,-0.34318 -0.981383,-0.60242 -1.43293,-0.97109 -0.426987,-0.21019 -0.823886,-0.51429 -1.286088,-0.63521 -0.896378,-0.29066 -1.839816,-0.45783 -2.755356,-0.67874 -2.158309,-0.39903 -4.320677,-0.8239 -6.528594,-0.77218 -2.6002395,-0.007 -5.2029642,-0.0244 -7.80036034,0.1169 0,0 13.02204934,-9.46108 13.02204934,-9.46108 z"
       inkscape:connector-curvature="0" />
    <path
       style="fill:#803300;stroke-width:0.26458332"
       id="path4137"
       d="m 21.536385,210.1767 c 4.390737,1.25478 8.830561,2.33839 13.256373,3.46416 4.916466,1.2717 9.853266,2.46505 14.788875,3.66059 0.519136,0.11762 1.038272,0.23524 1.557409,0.35285 0,0 -12.897731,8.87152 -12.897731,8.87152 v 0 c -0.482179,-0.14665 -0.964361,-0.2933 -1.446541,-0.43995 -4.785246,-1.43433 -9.64311,-2.58406 -14.475909,-3.8443 -4.612942,-1.15063 -9.238765,-2.28889 -13.9535314,-2.94462 0,0 13.1710554,-9.12025 13.1710554,-9.12025 z"
       inkscape:connector-curvature="0" />
    <path
       style="fill:#552200;stroke-width:0.26458332"
       id="path4139"
       d="m 17.531912,228.01006 c 8.959385,2.94241 18.132302,5.15396 27.254352,7.51974 10.061987,2.49321 19.923773,5.70264 29.922223,8.42304 0.840235,0.21087 1.680467,0.42174 2.520699,0.63262 0,0 -12.622384,8.61997 -12.622384,8.61997 v 0 c -0.763527,-0.27039 -1.527054,-0.54079 -2.29058,-0.81119 -9.476574,-3.3865 -18.987728,-6.70374 -28.770712,-9.11575 -9.634519,-2.37773 -19.321591,-4.65484 -29.1294846,-6.19471 0,0 13.1158866,-9.07372 13.1158866,-9.07372 z"
       inkscape:connector-curvature="0" />
    <path
       style="fill:#552200;stroke-width:0.26458332"
       id="path4143"
       d="m 8.1971644,248.39617 c 0.3444716,0.17145 0.6811541,0.35953 1.0334151,0.51435 2.4519965,1.07764 4.9986815,1.95498 7.5105135,2.87621 6.034438,2.21316 2.17841,0.86078 8.82941,3.10906 9.432276,3.20349 18.882666,6.35325 28.321531,9.53743 2.980931,1.00561 5.947902,2.05278 8.935916,3.03714 3.048759,1.00438 6.115748,1.95254 9.173622,2.9288 13.424165,4.14616 26.878836,8.24439 40.593418,11.32642 3.4314,0.81783 6.92104,1.3203 10.39873,1.88439 0,0 -12.84421,8.93056 -12.84421,8.93056 v 0 c -3.17968,-0.84408 -6.37707,-1.62312 -9.52798,-2.57347 -13.078097,-3.90697 -25.968804,-8.39867 -38.980798,-12.51612 -15.900497,-5.01221 -31.785493,-10.08385 -47.85748,-14.52771 -6.2976427,-1.8359 -12.5578353,-3.81397 -18.8987349,-5.49456 0,0 13.3126473,-9.0325 13.3126473,-9.0325 z"
       inkscape:connector-curvature="0" />
    <path
       style="fill:#552200;stroke-width:0.26458332"
       id="path4145"
       d="m 22.983228,281.52259 c 3.137479,0.90353 6.355407,1.45883 9.554497,2.0865 2.836881,0.55663 5.668796,1.13829 8.504177,1.70249 8.422941,1.59983 16.812984,3.38045 25.25301,4.88783 4.874503,0.77955 9.671968,1.94652 14.517714,2.87245 0.342749,0.0625 0.685501,0.12502 1.02825,0.18754 0,0 -13.054886,9.02653 -13.054886,9.02653 v 0 c -0.298928,-0.0902 -0.597857,-0.18045 -0.896786,-0.27067 -4.535525,-1.27085 -9.089028,-2.46902 -13.719932,-3.35013 -8.343921,-1.69074 -16.662997,-3.5061 -25.038576,-5.03896 -6.392364,-1.17478 -12.811044,-2.22502 -19.2788251,-2.89052 0,0 13.1313571,-9.21306 13.1313571,-9.21306 z"
       inkscape:connector-curvature="0" />
    <path
       style="fill:#803300;stroke-width:0.26458332"
       id="path4165"
       d="m 101.72528,258.60284 c 7.83368,3.69768 15.82287,7.05732 23.82598,10.36879 8.05978,3.22482 16.29626,5.97834 24.55333,8.64727 2.80227,0.86778 5.59778,1.75742 8.40207,2.61858 0,0 -12.97967,8.77536 -12.97967,8.77536 v 0 c -2.59772,-1.04079 -5.21589,-2.02576 -7.84341,-2.98897 -7.99666,-2.97723 -16.00362,-5.93183 -23.89147,-9.19065 -8.30024,-3.39175 -16.562673,-6.96751 -25.205473,-9.4139 0,0 13.138643,-8.81648 13.138643,-8.81648 z"
       inkscape:connector-curvature="0" />
    <path
       style="fill:#803300;stroke-width:0.26458332"
       id="path4169"
       d="m 102.90709,241.32029 c 12.49101,5.9421 25.52951,10.61452 38.4394,15.54337 14.90455,5.5622 29.7844,11.18608 44.63772,16.88351 9.30358,3.53677 18.58384,7.13328 27.86022,10.74037 0,0 -12.63194,8.39472 -12.63194,8.39472 v 0 c -2.06235,-1.04185 -3.49544,-1.78204 -5.64742,-2.78929 -6.8169,-3.19069 -13.8176,-5.96543 -20.77085,-8.83906 -4.54249,-1.82698 -9.06736,-3.69809 -13.62237,-5.49365 -10.16377,-4.00654 -20.44421,-7.71322 -30.64506,-11.6228 -7.76368,-2.9594 -15.53835,-5.87584 -23.37159,-8.64737 -4.89596,-1.73228 -8.194195,-2.91882 -13.082012,-4.33216 -1.346293,-0.38929 -2.714239,-0.69935 -4.071361,-1.04902 0,0 12.905263,-8.78862 12.905263,-8.78862 z"
       inkscape:connector-curvature="0" />
    <path
       style="fill:#784421;stroke-width:0.26458332"
       id="path4171"
       d="m 135.39398,234.91986 c 0.44146,0.21331 0.87346,0.44744 1.32439,0.63994 0.92138,0.39331 4.40455,1.69493 5.06985,1.93801 3.88784,1.42048 7.81314,2.73643 11.72999,4.07382 8.6713,2.93516 17.45018,5.536 26.15194,8.37615 7.07612,2.34389 14.05963,4.94778 21.06049,7.50304 0.60401,0.23501 1.20802,0.47002 1.81203,0.70503 0,0 -12.93409,8.60291 -12.93409,8.60291 v 0 c -0.53485,-0.26509 -1.0697,-0.53017 -1.60455,-0.79526 -6.61461,-3.01592 -13.40134,-5.6012 -20.30538,-7.88064 -8.71989,-2.82858 -17.51165,-5.43426 -26.20292,-8.35369 -6.41139,-2.08255 -12.8471,-4.09838 -19.3559,-5.85762 0,0 13.25415,-8.95169 13.25415,-8.95169 z"
       inkscape:connector-curvature="0" />
    <path
       style="fill:#a05a2c;stroke-width:0.26458332"
       id="path4173"
       d="m 174.30174,221.92186 c 2.53076,1.62149 5.1579,3.08941 7.82649,4.47182 3.22494,1.58383 6.47184,3.11758 9.76664,4.55039 2.11284,0.8674 4.28848,1.5692 6.40768,2.41643 1.2289,0.39702 2.42098,0.89215 3.62989,1.34318 0,0 -13.2393,8.8715 -13.2393,8.8715 v 0 c -1.16363,-0.49546 -2.34217,-0.94999 -3.52973,-1.3851 -2.14352,-0.78699 -4.2854,-1.58595 -6.34446,-2.57922 -3.22394,-1.55746 -6.42293,-3.16583 -9.65408,-4.70827 -2.78847,-1.42168 -5.54949,-2.89504 -8.34099,-4.31053 0,0 13.47786,-8.6702 13.47786,-8.6702 z"
       inkscape:connector-curvature="0" />
    <path
       style="fill:#c87137;stroke-width:0.26458332"
       id="path4175"
       d="m 192.34822,210.81697 c 1.48792,1.14203 3.15486,2.01538 4.66627,3.11849 0.85994,0.58002 1.69123,1.16888 2.42962,1.8987 0.54824,0.66987 1.07,1.36123 1.57531,2.06307 0.34018,0.25112 0.75145,1.05636 1.10909,1.19469 -0.12965,-0.25108 -0.30291,-0.48408 -0.38894,-0.75324 -0.0199,-0.0622 0.11399,0.0652 0.17576,0.0862 0.0197,0.007 0.0499,-0.022 0.0622,-0.005 0.34642,0.47383 0.57046,0.87289 0.81429,1.37448 0.21107,0.50582 0.41692,1.01059 0.6563,1.50368 0,0 -13.95291,7.92203 -13.95291,7.92203 v 0 c -0.22184,-0.45808 -0.40945,-0.93303 -0.67426,-1.36848 -0.0976,-0.14302 -0.40266,-0.59449 -0.26705,-0.36948 0.13487,0.2238 0.28182,0.44009 0.42273,0.66013 -0.0115,0.003 -0.0295,-0.002 -0.0346,0.008 -0.0171,0.0358 0.003,0.14418 -0.0249,0.11644 -0.21434,-0.20953 -0.37906,-0.46442 -0.56858,-0.69662 -0.37842,-0.51262 -0.83335,-0.96432 -1.2021,-1.48544 -0.43924,-0.62385 -0.87968,-1.25111 -1.40297,-1.80849 -0.70345,-0.64176 -1.47552,-1.19976 -2.21065,-1.80418 -1.45159,-1.09849 -3.01169,-2.08691 -4.65056,-2.87847 0,0 13.46596,-8.77651 13.46596,-8.77651 z"
       inkscape:connector-curvature="0" />
    <path
       style="fill:#552200;stroke-width:0.26458332"
       id="path4177"
       d="m 61.358425,218.08538 c 3.339012,1.91455 6.811721,3.59033 10.279099,5.25789 4.452842,2.26467 8.758764,4.80319 13.136105,7.20865 2.977218,1.83741 6.184497,3.26513 9.209664,5.01236 0.901732,0.47458 1.79393,0.99038 2.737564,1.37733 0.107553,0.0286 0.215106,0.0572 0.322657,0.0857 0,0 -13.374005,8.97526 -13.374005,8.97526 v 0 c -0.128423,-0.0636 -0.256849,-0.12727 -0.385273,-0.19091 -0.913201,-0.49869 -1.818719,-1.0107 -2.652255,-1.63872 -2.795561,-1.88123 -5.711298,-3.58539 -8.607165,-5.30509 -4.380087,-2.41653 -8.757065,-4.8468 -13.259181,-7.03104 -3.551515,-1.72714 -7.064089,-3.552 -10.756921,-4.96784 0,0 13.349711,-8.78364 13.349711,-8.78364 z"
       inkscape:connector-curvature="0" />
    <ellipse
       style="fill:#aa8800;stroke-width:0.26458332"
       id="path3861"
       cx="180.67261"
       cy="175.66963"
       rx="10.583333"
       ry="12.473214" />
    <flowRoot
       xml:space="preserve"
       id="flowRoot4180"
       style="font-style:normal;font-variant:normal;font-weight:normal;font-stretch:normal;font-size:40px;line-height:1.25;font-family:'Bell MT';-inkscape-font-specification:'Bell MT';letter-spacing:0px;word-spacing:0px;fill:#000000;fill-opacity:1;stroke:none"
       transform="matrix(0.26458333,0,0,0.42203613,260.04763,-35.82606)"><flowRegion
         id="flowRegion4182"><rect
           id="rect4184"
           width="222.85713"
           height="102.85713"
           x="-524.28571"
           y="363.94824" /></flowRegion><flowPara
         id="flowPara4186">OSSD 2020</flowPara></flowRoot>  </g>
</svg>
